STARTFONT 2.1

COMMENT
COMMENT  This is the Tektite font, out of the VFONT utility by clySmic
COMMENT  Software. It's been heavily modified: the 0 and the * have been
COMMENT  altered, a load of new characters have been drawn, and of course
COMMENT  it's had a format conversion done on it.
COMMENT
COMMENT  All these modifications were done by Simon Tatham, who asserts
COMMENT  no copyright.
COMMENT
COMMENT  The original VFONT copyright says:
COMMENT
COMMENT    VFONT is copyright 1991, 1993, 1998 by clySmic software, and is
COMMENT    released as "Freeware".
COMMENT
COMMENT    You may copy the program and distribute it without charge.  You may
COMMENT    not sell or otherwise charge for VFONT. However, users' groups may
COMMENT    charge a small fee (not to exceed $10) for media and postage.
COMMENT

FONT -clySmic-Tektite-Medium-R-Normal--15-140-75-75-C-90-ISO10646-1
SIZE 14 75 75
FONTBOUNDINGBOX 9 15 0 -3

STARTPROPERTIES 24
  FONTNAME_REGISTRY ""
  FOUNDRY "clySmic"
  FAMILY_NAME "Tektite"
  WEIGHT_NAME "Medium"
  SLANT "R"
  SETWIDTH_NAME "Normal"
  ADD_STYLE_NAME ""
  PIXEL_SIZE 15
  POINT_SIZE 140
  RESOLUTION_X 75
  RESOLUTION_Y 75
  SPACING "C"
  AVERAGE_WIDTH 90
  CHARSET_REGISTRY "ISO10646"
  CHARSET_ENCODING "1"
  COPYRIGHT "Portions copyright 1991,1993,1998 clySmic Software."
  FONT "-clySmic-Tektite-Medium-R-Normal--15-140-75-75-C-90-ISO10646-1"
  WEIGHT 10
  RESOLUTION 103
  X_HEIGHT 12
  QUAD_WIDTH 9
  DEFAULT_CHAR 0
  FONT_ASCENT 12
  FONT_DESCENT 3
ENDPROPERTIES

CHARS 543

STARTCHAR space
ENCODING 32
SWIDTH 617 0
DWIDTH 9 0
BBX 9 15 0 -3
BITMAP
0000
0000
0000
0000
0000
0000
0000
0000
0000
0000
0000
0000
0000
0000
0000
ENDCHAR

STARTCHAR exclam
ENCODING 33
SWIDTH 617 0
DWIDTH 9 0
BBX 9 15 0 -3
BITMAP
0000
0000
0c00
0c00
0c00
0c00
0c00
0c00
0c00
0000
0c00
0c00
0000
0000
0000
ENDCHAR

STARTCHAR quotedbl
ENCODING 34
SWIDTH 617 0
DWIDTH 9 0
BBX 9 15 0 -3
BITMAP
0000
0000
1980
3300
6600
0000
0000
0000
0000
0000
0000
0000
0000
0000
0000
ENDCHAR

STARTCHAR numbersign
ENCODING 35
SWIDTH 617 0
DWIDTH 9 0
BBX 9 15 0 -3
BITMAP
0000
0000
1980
1980
7f80
3300
3300
3300
3300
7f80
6600
6600
0000
0000
0000
ENDCHAR

STARTCHAR dollar
ENCODING 36
SWIDTH 617 0
DWIDTH 9 0
BBX 9 15 0 -3
BITMAP
0000
0c00
3f00
6d80
6c00
3c00
0e00
0f00
0d80
6d80
6d80
3f00
0c00
0000
0000
ENDCHAR

STARTCHAR percent
ENCODING 37
SWIDTH 617 0
DWIDTH 9 0
BBX 9 15 0 -3
BITMAP
0000
0000
3000
6880
5980
3300
0600
0c00
1b00
3680
6580
0300
0000
0000
0000
ENDCHAR

STARTCHAR ampersand
ENCODING 38
SWIDTH 617 0
DWIDTH 9 0
BBX 9 15 0 -3
BITMAP
0000
0000
0e00
1b00
3300
1e00
1c00
3600
6380
6300
3700
1d80
0000
0000
0000
ENDCHAR

STARTCHAR quotesingle
ENCODING 39
SWIDTH 617 0
DWIDTH 9 0
BBX 9 15 0 -3
BITMAP
0000
0000
0600
0c00
1800
0000
0000
0000
0000
0000
0000
0000
0000
0000
0000
ENDCHAR

STARTCHAR parenleft
ENCODING 40
SWIDTH 617 0
DWIDTH 9 0
BBX 9 15 0 -3
BITMAP
0000
0600
0c00
1800
1800
3000
3000
3000
3000
1800
1800
0c00
0600
0000
0000
ENDCHAR

STARTCHAR parenright
ENCODING 41
SWIDTH 617 0
DWIDTH 9 0
BBX 9 15 0 -3
BITMAP
0000
1800
0c00
0600
0600
0300
0300
0300
0300
0600
0600
0c00
1800
0000
0000
ENDCHAR

STARTCHAR asterisk
ENCODING 42
SWIDTH 617 0
DWIDTH 9 0
BBX 9 15 0 -3
BITMAP
0000
0000
0000
0000
0000
3300
1e00
7f80
1e00
3300
0000
0000
0000
0000
0000
ENDCHAR

STARTCHAR plus
ENCODING 43
SWIDTH 617 0
DWIDTH 9 0
BBX 9 15 0 -3
BITMAP
0000
0000
0000
0000
0000
0c00
0c00
3f00
0c00
0c00
0000
0000
0000
0000
0000
ENDCHAR

STARTCHAR comma
ENCODING 44
SWIDTH 617 0
DWIDTH 9 0
BBX 9 15 0 -3
BITMAP
0000
0000
0000
0000
0000
0000
0000
0000
0000
0000
0600
0c00
1800
0000
0000
ENDCHAR

STARTCHAR hyphen
ENCODING 45
SWIDTH 617 0
DWIDTH 9 0
BBX 9 15 0 -3
BITMAP
0000
0000
0000
0000
0000
0000
0000
3f00
0000
0000
0000
0000
0000
0000
0000
ENDCHAR

STARTCHAR period
ENCODING 46
SWIDTH 617 0
DWIDTH 9 0
BBX 9 15 0 -3
BITMAP
0000
0000
0000
0000
0000
0000
0000
0000
0000
0000
0c00
0c00
0000
0000
0000
ENDCHAR

STARTCHAR slash
ENCODING 47
SWIDTH 617 0
DWIDTH 9 0
BBX 9 15 0 -3
BITMAP
0000
0000
0300
0200
0600
0400
0c00
0800
1800
1000
3000
2000
6000
0000
0000
ENDCHAR

STARTCHAR zero
ENCODING 48
SWIDTH 617 0
DWIDTH 9 0
BBX 9 15 0 -3
BITMAP
0000
0000
1f00
3180
6380
6780
6d80
7980
7180
6180
6300
3e00
0000
0000
0000
ENDCHAR

STARTCHAR one
ENCODING 49
SWIDTH 617 0
DWIDTH 9 0
BBX 9 15 0 -3
BITMAP
0000
0000
0600
0e00
1e00
3600
0600
0600
0600
0600
0600
0600
0000
0000
0000
ENDCHAR

STARTCHAR two
ENCODING 50
SWIDTH 617 0
DWIDTH 9 0
BBX 9 15 0 -3
BITMAP
0000
0000
1f00
3180
6180
0180
0300
0600
0c00
1800
3180
7f80
0000
0000
0000
ENDCHAR

STARTCHAR three
ENCODING 51
SWIDTH 617 0
DWIDTH 9 0
BBX 9 15 0 -3
BITMAP
0000
0000
7f80
6300
0600
0c00
1f00
0180
0180
6180
6300
3e00
0000
0000
0000
ENDCHAR

STARTCHAR four
ENCODING 52
SWIDTH 617 0
DWIDTH 9 0
BBX 9 15 0 -3
BITMAP
0000
0000
0300
0700
0f00
1b00
3300
6380
6f00
7b00
0300
0300
0000
0000
0000
ENDCHAR

STARTCHAR five
ENCODING 53
SWIDTH 617 0
DWIDTH 9 0
BBX 9 15 0 -3
BITMAP
0000
0000
0f80
7800
6000
6e00
7b00
0180
0180
6180
6300
3e00
0000
0000
0000
ENDCHAR

STARTCHAR six
ENCODING 54
SWIDTH 617 0
DWIDTH 9 0
BBX 9 15 0 -3
BITMAP
0000
0000
1e00
3300
6300
6000
6e00
7b00
6300
6300
6600
3c00
0000
0000
0000
ENDCHAR

STARTCHAR seven
ENCODING 55
SWIDTH 617 0
DWIDTH 9 0
BBX 9 15 0 -3
BITMAP
0000
0000
7f80
6180
0300
0600
0600
0c00
0c00
1800
1800
1800
0000
0000
0000
ENDCHAR

STARTCHAR eight
ENCODING 56
SWIDTH 617 0
DWIDTH 9 0
BBX 9 15 0 -3
BITMAP
0000
0000
1e00
3300
6300
3600
1f00
3180
6180
6180
6300
3e00
0000
0000
0000
ENDCHAR

STARTCHAR nine
ENCODING 57
SWIDTH 617 0
DWIDTH 9 0
BBX 9 15 0 -3
BITMAP
0000
0000
1e00
3300
6300
6300
6f00
3b00
0300
6300
6600
3c00
0000
0000
0000
ENDCHAR

STARTCHAR colon
ENCODING 58
SWIDTH 617 0
DWIDTH 9 0
BBX 9 15 0 -3
BITMAP
0000
0000
0000
0000
0c00
0c00
0000
0000
0000
0c00
0c00
0000
0000
0000
0000
ENDCHAR

STARTCHAR semicolon
ENCODING 59
SWIDTH 617 0
DWIDTH 9 0
BBX 9 15 0 -3
BITMAP
0000
0000
0000
0000
0c00
0c00
0000
0000
0000
0c00
0c00
1800
0000
0000
0000
ENDCHAR

STARTCHAR less
ENCODING 60
SWIDTH 617 0
DWIDTH 9 0
BBX 9 15 0 -3
BITMAP
0000
0000
0300
0600
0c00
1800
3000
3000
1800
0c00
0600
0300
0000
0000
0000
ENDCHAR

STARTCHAR equal
ENCODING 61
SWIDTH 617 0
DWIDTH 9 0
BBX 9 15 0 -3
BITMAP
0000
0000
0000
0000
0000
7f80
0000
0000
7f80
0000
0000
0000
0000
0000
0000
ENDCHAR

STARTCHAR greater
ENCODING 62
SWIDTH 617 0
DWIDTH 9 0
BBX 9 15 0 -3
BITMAP
0000
0000
3000
1800
0c00
0600
0300
0300
0600
0c00
1800
3000
0000
0000
0000
ENDCHAR

STARTCHAR question
ENCODING 63
SWIDTH 617 0
DWIDTH 9 0
BBX 9 15 0 -3
BITMAP
0000
0000
1f00
3180
6300
0600
0c00
1800
1800
0000
1800
1800
0000
0000
0000
ENDCHAR

STARTCHAR at
ENCODING 64
SWIDTH 617 0
DWIDTH 9 0
BBX 9 15 0 -3
BITMAP
0000
0000
0f00
1980
3780
6d80
6d80
6d80
6f00
6c00
6300
6e00
3800
0000
0000
ENDCHAR

STARTCHAR A
ENCODING 65
SWIDTH 617 0
DWIDTH 9 0
BBX 9 15 0 -3
BITMAP
0000
0000
0c00
0c00
1e00
1200
3300
3700
3d00
7180
6180
6180
0000
0000
0000
ENDCHAR

STARTCHAR B
ENCODING 66
SWIDTH 617 0
DWIDTH 9 0
BBX 9 15 0 -3
BITMAP
0000
0000
0f00
1980
7180
6300
6e00
7b80
6180
6300
6e00
7800
0000
0000
0000
ENDCHAR

STARTCHAR C
ENCODING 67
SWIDTH 617 0
DWIDTH 9 0
BBX 9 15 0 -3
BITMAP
0000
0000
0f00
1980
3000
6000
6000
6000
6000
6000
3180
1f00
0000
0000
0000
ENDCHAR

STARTCHAR D
ENCODING 68
SWIDTH 617 0
DWIDTH 9 0
BBX 9 15 0 -3
BITMAP
0000
0000
7e00
6300
6180
6180
6180
6180
6180
6300
6e00
7800
0000
0000
0000
ENDCHAR

STARTCHAR E
ENCODING 69
SWIDTH 617 0
DWIDTH 9 0
BBX 9 15 0 -3
BITMAP
0000
0000
0f00
7800
6000
6000
6e00
7800
6000
6000
6f00
7800
0000
0000
0000
ENDCHAR

STARTCHAR F
ENCODING 70
SWIDTH 617 0
DWIDTH 9 0
BBX 9 15 0 -3
BITMAP
0000
0000
0f00
7800
6000
6000
6e00
7800
6000
6000
6000
6000
0000
0000
0000
ENDCHAR

STARTCHAR G
ENCODING 71
SWIDTH 617 0
DWIDTH 9 0
BBX 9 15 0 -3
BITMAP
0000
0000
1f00
3180
6000
6000
6000
6780
6180
6180
3300
1e00
0000
0000
0000
ENDCHAR

STARTCHAR H
ENCODING 72
SWIDTH 617 0
DWIDTH 9 0
BBX 9 15 0 -3
BITMAP
0000
0000
6180
6180
6180
6180
6780
7d80
6180
6180
6180
6180
0000
0000
0000
ENDCHAR

STARTCHAR I
ENCODING 73
SWIDTH 617 0
DWIDTH 9 0
BBX 9 15 0 -3
BITMAP
0000
0000
0e00
1c00
0c00
0c00
0c00
0c00
0c00
0c00
0e00
1c00
0000
0000
0000
ENDCHAR

STARTCHAR J
ENCODING 74
SWIDTH 617 0
DWIDTH 9 0
BBX 9 15 0 -3
BITMAP
0000
0000
0180
0180
0180
0180
0180
0180
6180
6180
3180
1f00
0000
0000
0000
ENDCHAR

STARTCHAR K
ENCODING 75
SWIDTH 617 0
DWIDTH 9 0
BBX 9 15 0 -3
BITMAP
0000
0000
6180
6300
6e00
7800
7000
7800
6c00
6600
6300
6180
0000
0000
0000
ENDCHAR

STARTCHAR L
ENCODING 76
SWIDTH 617 0
DWIDTH 9 0
BBX 9 15 0 -3
BITMAP
0000
0000
6000
6000
6000
6000
6000
6000
6000
6000
6f00
7800
0000
0000
0000
ENDCHAR

STARTCHAR M
ENCODING 77
SWIDTH 617 0
DWIDTH 9 0
BBX 9 15 0 -3
BITMAP
0000
0000
6180
6180
7380
7780
7d80
6980
6180
6180
6180
6180
0000
0000
0000
ENDCHAR

STARTCHAR N
ENCODING 78
SWIDTH 617 0
DWIDTH 9 0
BBX 9 15 0 -3
BITMAP
0000
0000
6180
6180
7180
7980
6980
6d80
6780
6380
6180
6180
0000
0000
0000
ENDCHAR

STARTCHAR O
ENCODING 79
SWIDTH 617 0
DWIDTH 9 0
BBX 9 15 0 -3
BITMAP
0000
0000
1f00
3180
6180
6180
6180
6180
6180
6180
6300
3e00
0000
0000
0000
ENDCHAR

STARTCHAR P
ENCODING 80
SWIDTH 617 0
DWIDTH 9 0
BBX 9 15 0 -3
BITMAP
0000
0000
0f00
1980
7180
6180
6300
6e00
7800
6000
6000
6000
0000
0000
0000
ENDCHAR

STARTCHAR Q
ENCODING 81
SWIDTH 617 0
DWIDTH 9 0
BBX 9 15 0 -3
BITMAP
0000
0000
1f00
3180
6180
6180
6180
6180
7980
6f00
6600
3e00
0300
0180
0000
ENDCHAR

STARTCHAR R
ENCODING 82
SWIDTH 617 0
DWIDTH 9 0
BBX 9 15 0 -3
BITMAP
0000
0000
0f00
1980
7180
6180
6300
7e00
6c00
6600
6300
6180
0000
0000
0000
ENDCHAR

STARTCHAR S
ENCODING 83
SWIDTH 617 0
DWIDTH 9 0
BBX 9 15 0 -3
BITMAP
0000
0000
3f00
6180
6000
3800
0e00
0300
0180
6180
6180
3f00
0000
0000
0000
ENDCHAR

STARTCHAR T
ENCODING 84
SWIDTH 617 0
DWIDTH 9 0
BBX 9 15 0 -3
BITMAP
0000
0000
0780
7c00
0c00
0c00
0c00
0c00
0c00
0c00
0c00
0c00
0000
0000
0000
ENDCHAR

STARTCHAR U
ENCODING 85
SWIDTH 617 0
DWIDTH 9 0
BBX 9 15 0 -3
BITMAP
0000
0000
6180
6180
6180
6180
6180
6180
6300
6300
6600
3c00
0000
0000
0000
ENDCHAR

STARTCHAR V
ENCODING 86
SWIDTH 617 0
DWIDTH 9 0
BBX 9 15 0 -3
BITMAP
0000
0000
6180
6180
6180
6180
3300
3300
3e00
1c00
1800
1800
0000
0000
0000
ENDCHAR

STARTCHAR W
ENCODING 87
SWIDTH 617 0
DWIDTH 9 0
BBX 9 15 0 -3
BITMAP
0000
0000
6180
6180
6180
6180
6d80
6d80
6d80
7f80
7380
6180
0000
0000
0000
ENDCHAR

STARTCHAR X
ENCODING 88
SWIDTH 617 0
DWIDTH 9 0
BBX 9 15 0 -3
BITMAP
0000
0000
6180
6180
3300
3300
1e00
1e00
3300
3300
6180
6180
0000
0000
0000
ENDCHAR

STARTCHAR Y
ENCODING 89
SWIDTH 617 0
DWIDTH 9 0
BBX 9 15 0 -3
BITMAP
0000
0000
6180
6180
3300
3300
1e00
0c00
0c00
0c00
0c00
0c00
0000
0000
0000
ENDCHAR

STARTCHAR Z
ENCODING 90
SWIDTH 617 0
DWIDTH 9 0
BBX 9 15 0 -3
BITMAP
0000
0000
0f80
7b00
0200
0600
0c00
0800
1800
1000
3780
7c00
0000
0000
0000
ENDCHAR

STARTCHAR bracketleft
ENCODING 91
SWIDTH 617 0
DWIDTH 9 0
BBX 9 15 0 -3
BITMAP
0000
1f00
1800
1800
1800
1800
1800
1800
1800
1800
1800
1800
1f00
0000
0000
ENDCHAR

STARTCHAR backslash
ENCODING 92
SWIDTH 617 0
DWIDTH 9 0
BBX 9 15 0 -3
BITMAP
0000
0000
6000
2000
3000
1000
1800
0800
0c00
0400
0600
0200
0300
0000
0000
ENDCHAR

STARTCHAR bracketright
ENCODING 93
SWIDTH 617 0
DWIDTH 9 0
BBX 9 15 0 -3
BITMAP
0000
3e00
0600
0600
0600
0600
0600
0600
0600
0600
0600
0600
3e00
0000
0000
ENDCHAR

STARTCHAR asciicircum
ENCODING 94
SWIDTH 617 0
DWIDTH 9 0
BBX 9 15 0 -3
BITMAP
0000
0c00
1e00
3300
6000
0000
0000
0000
0000
0000
0000
0000
0000
0000
0000
ENDCHAR

STARTCHAR underscore
ENCODING 95
SWIDTH 617 0
DWIDTH 9 0
BBX 9 15 0 -3
BITMAP
0000
0000
0000
0000
0000
0000
0000
0000
0000
0000
0000
0000
0000
7f80
0000
ENDCHAR

STARTCHAR grave
ENCODING 96
SWIDTH 617 0
DWIDTH 9 0
BBX 9 15 0 -3
BITMAP
0000
0000
1800
0c00
0600
0000
0000
0000
0000
0000
0000
0000
0000
0000
0000
ENDCHAR

STARTCHAR a
ENCODING 97
SWIDTH 617 0
DWIDTH 9 0
BBX 9 15 0 -3
BITMAP
0000
0000
0000
0000
0000
1f00
3180
0f80
3980
6180
6780
3d80
0000
0000
0000
ENDCHAR

STARTCHAR b
ENCODING 98
SWIDTH 617 0
DWIDTH 9 0
BBX 9 15 0 -3
BITMAP
0000
0000
6000
6000
6000
6e00
7b00
6180
6180
6300
6e00
7800
0000
0000
0000
ENDCHAR

STARTCHAR c
ENCODING 99
SWIDTH 617 0
DWIDTH 9 0
BBX 9 15 0 -3
BITMAP
0000
0000
0000
0000
0000
0f00
1980
3000
6000
6000
6180
3f00
0000
0000
0000
ENDCHAR

STARTCHAR d
ENCODING 100
SWIDTH 617 0
DWIDTH 9 0
BBX 9 15 0 -3
BITMAP
0000
0000
0180
0180
0180
0f80
3980
6180
6380
6780
6d80
3980
0000
0000
0000
ENDCHAR

STARTCHAR e
ENCODING 101
SWIDTH 617 0
DWIDTH 9 0
BBX 9 15 0 -3
BITMAP
0000
0000
0000
0000
0000
1f00
3180
6700
7c00
6000
6180
3f00
0000
0000
0000
ENDCHAR

STARTCHAR f
ENCODING 102
SWIDTH 617 0
DWIDTH 9 0
BBX 9 15 0 -3
BITMAP
0000
0000
0f00
1980
1800
1800
1e00
7800
1800
1800
1800
1800
0000
0000
0000
ENDCHAR

STARTCHAR g
ENCODING 103
SWIDTH 617 0
DWIDTH 9 0
BBX 9 15 0 -3
BITMAP
0000
0000
0000
0000
0000
1f80
3180
6180
6380
6780
6d80
3980
0180
6180
3f00
ENDCHAR

STARTCHAR h
ENCODING 104
SWIDTH 617 0
DWIDTH 9 0
BBX 9 15 0 -3
BITMAP
0000
0000
6000
6000
6000
6700
6d80
7980
7180
6180
6180
6180
0000
0000
0000
ENDCHAR

STARTCHAR i
ENCODING 105
SWIDTH 617 0
DWIDTH 9 0
BBX 9 15 0 -3
BITMAP
0000
0000
0c00
0c00
0000
0c00
0c00
0c00
0c00
0c00
0c00
0c00
0000
0000
0000
ENDCHAR

STARTCHAR j
ENCODING 106
SWIDTH 617 0
DWIDTH 9 0
BBX 9 15 0 -3
BITMAP
0000
0000
0600
0600
0000
0600
0600
0600
0600
0600
0600
0600
6600
6600
3c00
ENDCHAR

STARTCHAR k
ENCODING 107
SWIDTH 617 0
DWIDTH 9 0
BBX 9 15 0 -3
BITMAP
0000
0000
6000
6000
6000
6300
6600
6c00
7c00
7600
6300
6180
0000
0000
0000
ENDCHAR

STARTCHAR l
ENCODING 108
SWIDTH 617 0
DWIDTH 9 0
BBX 9 15 0 -3
BITMAP
0000
0000
1c00
0c00
0c00
0c00
0c00
0c00
0c00
0c00
0c00
0c00
0000
0000
0000
ENDCHAR

STARTCHAR m
ENCODING 109
SWIDTH 617 0
DWIDTH 9 0
BBX 9 15 0 -3
BITMAP
0000
0000
0000
0000
0000
7300
6d80
6d80
6d80
6180
6180
6180
0000
0000
0000
ENDCHAR

STARTCHAR n
ENCODING 110
SWIDTH 617 0
DWIDTH 9 0
BBX 9 15 0 -3
BITMAP
0000
0000
0000
0000
0000
6700
6d80
7980
7180
6180
6180
6180
0000
0000
0000
ENDCHAR

STARTCHAR o
ENCODING 111
SWIDTH 617 0
DWIDTH 9 0
BBX 9 15 0 -3
BITMAP
0000
0000
0000
0000
0000
1f00
3180
6180
6180
6180
6300
3e00
0000
0000
0000
ENDCHAR

STARTCHAR p
ENCODING 112
SWIDTH 617 0
DWIDTH 9 0
BBX 9 15 0 -3
BITMAP
0000
0000
0000
0000
0000
6700
6d80
7980
7180
6180
6300
7e00
6000
6000
6000
ENDCHAR

STARTCHAR q
ENCODING 113
SWIDTH 617 0
DWIDTH 9 0
BBX 9 15 0 -3
BITMAP
0000
0000
0000
0000
0000
3980
6d80
6780
6380
6180
3180
1f80
0180
0180
0180
ENDCHAR

STARTCHAR r
ENCODING 114
SWIDTH 617 0
DWIDTH 9 0
BBX 9 15 0 -3
BITMAP
0000
0000
0000
0000
0000
6700
6d80
7980
7000
6000
6000
6000
0000
0000
0000
ENDCHAR

STARTCHAR s
ENCODING 115
SWIDTH 617 0
DWIDTH 9 0
BBX 9 15 0 -3
BITMAP
0000
0000
0000
0000
0000
3f00
6180
3800
0f00
0180
6180
3f00
0000
0000
0000
ENDCHAR

STARTCHAR t
ENCODING 116
SWIDTH 617 0
DWIDTH 9 0
BBX 9 15 0 -3
BITMAP
0000
0000
0800
1800
1800
1e00
7800
1800
1800
1b00
1e00
0c00
0000
0000
0000
ENDCHAR

STARTCHAR u
ENCODING 117
SWIDTH 617 0
DWIDTH 9 0
BBX 9 15 0 -3
BITMAP
0000
0000
0000
0000
0000
6180
6180
6180
6380
6780
6d80
3980
0000
0000
0000
ENDCHAR

STARTCHAR v
ENCODING 118
SWIDTH 617 0
DWIDTH 9 0
BBX 9 15 0 -3
BITMAP
0000
0000
0000
0000
0000
6180
6180
6180
3300
3600
1c00
0c00
0000
0000
0000
ENDCHAR

STARTCHAR w
ENCODING 119
SWIDTH 617 0
DWIDTH 9 0
BBX 9 15 0 -3
BITMAP
0000
0000
0000
0000
0000
6180
6180
6180
6d80
6d80
7f80
6180
0000
0000
0000
ENDCHAR

STARTCHAR x
ENCODING 120
SWIDTH 617 0
DWIDTH 9 0
BBX 9 15 0 -3
BITMAP
0000
0000
0000
0000
0000
6180
3300
1e00
0c00
1e00
3300
6180
0000
0000
0000
ENDCHAR

STARTCHAR y
ENCODING 121
SWIDTH 617 0
DWIDTH 9 0
BBX 9 15 0 -3
BITMAP
0000
0000
0000
0000
0000
6180
6180
6180
6180
6180
3300
1f00
0600
6c00
3800
ENDCHAR

STARTCHAR z
ENCODING 122
SWIDTH 617 0
DWIDTH 9 0
BBX 9 15 0 -3
BITMAP
0000
0000
0000
0000
0000
7f80
0300
0600
0c00
1800
3000
7f80
0000
0000
0000
ENDCHAR

STARTCHAR braceleft
ENCODING 123
SWIDTH 617 0
DWIDTH 9 0
BBX 9 15 0 -3
BITMAP
0000
0700
0c00
0c00
0c00
0c00
3800
3800
0c00
0c00
0c00
0c00
0700
0000
0000
ENDCHAR

STARTCHAR bar
ENCODING 124
SWIDTH 617 0
DWIDTH 9 0
BBX 9 15 0 -3
BITMAP
0000
0c00
0c00
0c00
0c00
0c00
0c00
0c00
0c00
0c00
0c00
0c00
0c00
0000
0000
ENDCHAR

STARTCHAR braceright
ENCODING 125
SWIDTH 617 0
DWIDTH 9 0
BBX 9 15 0 -3
BITMAP
0000
3800
0c00
0c00
0c00
0c00
0700
0700
0c00
0c00
0c00
0c00
3800
0000
0000
ENDCHAR

STARTCHAR asciitilde
ENCODING 126
SWIDTH 617 0
DWIDTH 9 0
BBX 9 15 0 -3
BITMAP
0000
0000
0000
0000
0000
0000
3b00
6e00
0000
0000
0000
0000
0000
0000
0000
ENDCHAR

STARTCHAR controlDEL
ENCODING 127
SWIDTH 617 0
DWIDTH 9 0
BBX 9 15 0 -3
BITMAP
0000
0000
0000
0000
0000
0000
0000
0000
0000
0000
0000
0000
0000
0000
0000
ENDCHAR

STARTCHAR nonbreakingspace
ENCODING 160
SWIDTH 617 0
DWIDTH 9 0
BBX 9 15 0 -3
BITMAP
0000
0000
0000
0000
0000
0000
0000
0000
0000
0000
0000
0000
0000
0000
0000
ENDCHAR

STARTCHAR exclamdown
ENCODING 161
SWIDTH 617 0
DWIDTH 9 0
BBX 9 15 0 -3
BITMAP
0000
0000
0c00
0c00
0000
0c00
0c00
0c00
0c00
0c00
0c00
0c00
0000
0000
0000
ENDCHAR

STARTCHAR cent
ENCODING 162
SWIDTH 617 0
DWIDTH 9 0
BBX 9 15 0 -3
BITMAP
0000
0000
0000
0400
0400
0f00
1d80
3400
6400
6400
6580
3f00
0400
0400
0000
ENDCHAR

STARTCHAR sterling
ENCODING 163
SWIDTH 617 0
DWIDTH 9 0
BBX 9 15 0 -3
BITMAP
0000
0000
1e00
3300
3000
7c00
3000
7c00
3000
3000
3180
3f00
0000
0000
0000
ENDCHAR

STARTCHAR currency
ENCODING 164
SWIDTH 617 0
DWIDTH 9 0
BBX 9 15 0 -3
BITMAP
0000
0000
0000
6180
3f00
1b00
3300
3300
3600
3f00
6180
0000
0000
0000
0000
ENDCHAR

STARTCHAR yen
ENCODING 165
SWIDTH 617 0
DWIDTH 9 0
BBX 9 15 0 -3
BITMAP
0000
0000
6180
6180
3300
3300
1e00
0c00
3f00
0c00
3f00
0c00
0c00
0000
0000
ENDCHAR

STARTCHAR brokenbar
ENCODING 166
SWIDTH 617 0
DWIDTH 9 0
BBX 9 15 0 -3
BITMAP
0000
0c00
0c00
0c00
0c00
0c00
0000
0000
0c00
0c00
0c00
0c00
0c00
0000
0000
ENDCHAR

STARTCHAR section
ENCODING 167
SWIDTH 617 0
DWIDTH 9 0
BBX 9 15 0 -3
BITMAP
0000
0000
1f00
3000
3e00
1b00
3300
3300
3600
1f00
0300
3e00
0000
0000
0000
ENDCHAR

STARTCHAR dieresis
ENCODING 168
SWIDTH 617 0
DWIDTH 9 0
BBX 9 15 0 -3
BITMAP
3300
3300
0000
0000
0000
0000
0000
0000
0000
0000
0000
0000
0000
0000
0000
ENDCHAR

STARTCHAR copyright
ENCODING 169
SWIDTH 617 0
DWIDTH 9 0
BBX 9 15 0 -3
BITMAP
0000
0000
0000
1f00
2080
4e80
5080
5080
5280
4c80
4100
3e00
0000
0000
0000
ENDCHAR

STARTCHAR ordfeminine
ENCODING 170
SWIDTH 617 0
DWIDTH 9 0
BBX 9 15 0 -3
BITMAP
0000
0000
1f00
3180
0f80
3980
6180
6780
3d80
0000
0000
7f80
0000
0000
0000
ENDCHAR

STARTCHAR guillemotleft
ENCODING 171
SWIDTH 617 0
DWIDTH 9 0
BBX 9 15 0 -3
BITMAP
0000
0000
0000
0000
0180
1b00
3600
6c00
6c00
3600
1b00
0000
0000
0000
0000
ENDCHAR

STARTCHAR logicalnot
ENCODING 172
SWIDTH 617 0
DWIDTH 9 0
BBX 9 15 0 -3
BITMAP
0000
0000
0000
0000
0000
0000
7f00
0300
0300
0300
0000
0000
0000
0000
0000
ENDCHAR

STARTCHAR softhyphen
ENCODING 173
SWIDTH 617 0
DWIDTH 9 0
BBX 9 15 0 -3
BITMAP
0000
0000
0000
0000
0000
0000
0000
1f00
0000
0000
0000
0000
0000
0000
0000
ENDCHAR

STARTCHAR registered
ENCODING 174
SWIDTH 617 0
DWIDTH 9 0
BBX 9 15 0 -3
BITMAP
0000
0000
0000
1f00
2080
4e80
5280
5c80
5280
5280
4100
3e00
0000
0000
0000
ENDCHAR

STARTCHAR macron
ENCODING 175
SWIDTH 617 0
DWIDTH 9 0
BBX 9 15 0 -3
BITMAP
0000
0000
0000
3f00
0000
0000
0000
0000
0000
0000
0000
0000
0000
0000
0000
ENDCHAR

STARTCHAR degree
ENCODING 176
SWIDTH 617 0
DWIDTH 9 0
BBX 9 15 0 -3
BITMAP
0000
0000
1e00
3300
3300
1e00
0000
0000
0000
0000
0000
0000
0000
0000
0000
ENDCHAR

STARTCHAR plusminus
ENCODING 177
SWIDTH 617 0
DWIDTH 9 0
BBX 9 15 0 -3
BITMAP
0000
0000
0000
0000
0c00
0c00
3f00
0c00
0c00
0000
0000
3f00
0000
0000
0000
ENDCHAR

STARTCHAR twosuperior
ENCODING 178
SWIDTH 617 0
DWIDTH 9 0
BBX 9 15 0 -3
BITMAP
0000
0000
3c00
6600
0c00
1800
3200
7e00
0000
0000
0000
0000
0000
0000
0000
ENDCHAR

STARTCHAR threesuperior
ENCODING 179
SWIDTH 617 0
DWIDTH 9 0
BBX 9 15 0 -3
BITMAP
0000
0000
7e00
0600
1c00
0600
6600
3c00
0000
0000
0000
0000
0000
0000
0000
ENDCHAR

STARTCHAR acute
ENCODING 180
SWIDTH 617 0
DWIDTH 9 0
BBX 9 15 0 -3
BITMAP
0600
0c00
1800
0000
0000
0000
0000
0000
0000
0000
0000
0000
0000
0000
0000
ENDCHAR

STARTCHAR mu
ENCODING 181
SWIDTH 617 0
DWIDTH 9 0
BBX 9 15 0 -3
BITMAP
0000
0000
0000
0000
0000
3180
3180
3180
3180
3380
3780
3d80
3000
3000
6000
ENDCHAR

STARTCHAR paragraph
ENCODING 182
SWIDTH 617 0
DWIDTH 9 0
BBX 9 15 0 -3
BITMAP
0000
0000
3e00
7f80
7d80
7d80
3d80
1d80
0f80
0d80
0d80
0d80
0000
0000
0000
ENDCHAR

STARTCHAR periodcentered
ENCODING 183
SWIDTH 617 0
DWIDTH 9 0
BBX 9 15 0 -3
BITMAP
0000
0000
0000
0000
0000
0000
0c00
1e00
1e00
0c00
0000
0000
0000
0000
0000
ENDCHAR

STARTCHAR cedilla
ENCODING 184
SWIDTH 617 0
DWIDTH 9 0
BBX 9 15 0 -3
BITMAP
0000
0000
0000
0000
0000
0000
0000
0000
0000
0000
0000
0000
0600
0c00
7800
ENDCHAR

STARTCHAR onesuperior
ENCODING 185
SWIDTH 617 0
DWIDTH 9 0
BBX 9 15 0 -3
BITMAP
0000
0000
1800
3800
1800
1800
1800
1800
0000
0000
0000
0000
0000
0000
0000
ENDCHAR

STARTCHAR ordmasculine
ENCODING 186
SWIDTH 617 0
DWIDTH 9 0
BBX 9 15 0 -3
BITMAP
0000
0000
1f00
3180
6180
6180
6180
6300
3e00
0000
0000
7f80
0000
0000
0000
ENDCHAR

STARTCHAR guillemotright
ENCODING 187
SWIDTH 617 0
DWIDTH 9 0
BBX 9 15 0 -3
BITMAP
0000
0000
0000
0000
0000
3600
1b00
0d80
0d80
1b00
3600
6000
0000
0000
0000
ENDCHAR

STARTCHAR onequarter
ENCODING 188
SWIDTH 617 0
DWIDTH 9 0
BBX 9 15 0 -3
BITMAP
0000
3000
7080
3180
3300
3600
0c00
1800
3300
6700
4b80
1f00
0300
0300
0000
ENDCHAR

STARTCHAR onehalf
ENCODING 189
SWIDTH 617 0
DWIDTH 9 0
BBX 9 15 0 -3
BITMAP
0000
3000
7080
3180
3300
3600
0c00
1800
3000
6700
4d80
0300
0680
0f80
0000
ENDCHAR

STARTCHAR threequarters
ENCODING 190
SWIDTH 617 0
DWIDTH 9 0
BBX 9 15 0 -3
BITMAP
0000
7000
1880
3180
1b00
7600
0c00
1800
3300
6700
4b80
1f00
0300
0300
0000
ENDCHAR

STARTCHAR questiondown
ENCODING 191
SWIDTH 617 0
DWIDTH 9 0
BBX 9 15 0 -3
BITMAP
0000
0000
0600
0600
0000
0600
0600
0c00
1800
3180
6300
3e00
0000
0000
0000
ENDCHAR

STARTCHAR Agrave
ENCODING 192
SWIDTH 617 0
DWIDTH 9 0
BBX 9 15 0 -3
BITMAP
1800
0c00
0600
0c00
1e00
1200
3300
3300
3f00
6180
6180
6180
0000
0000
0000
ENDCHAR

STARTCHAR Aacute
ENCODING 193
SWIDTH 617 0
DWIDTH 9 0
BBX 9 15 0 -3
BITMAP
0600
0c00
1800
0c00
1e00
1200
3300
3300
3f00
6180
6180
6180
0000
0000
0000
ENDCHAR

STARTCHAR Acircumflex
ENCODING 194
SWIDTH 617 0
DWIDTH 9 0
BBX 9 15 0 -3
BITMAP
0c00
1e00
3000
0c00
1e00
1200
3300
3300
3f00
6180
6180
6180
0000
0000
0000
ENDCHAR

STARTCHAR Atilde
ENCODING 195
SWIDTH 617 0
DWIDTH 9 0
BBX 9 15 0 -3
BITMAP
0180
3b00
6e00
0c00
1e00
1200
3300
3300
3f00
6180
6180
6180
0000
0000
0000
ENDCHAR

STARTCHAR Adieresis
ENCODING 196
SWIDTH 617 0
DWIDTH 9 0
BBX 9 15 0 -3
BITMAP
3300
3300
0c00
0c00
1e00
1200
3300
3300
3f00
6180
6180
6180
0000
0000
0000
ENDCHAR

STARTCHAR Aring
ENCODING 197
SWIDTH 617 0
DWIDTH 9 0
BBX 9 15 0 -3
BITMAP
0c00
1200
1200
0c00
1e00
1200
3300
3300
3f00
6180
6180
6180
0000
0000
0000
ENDCHAR

STARTCHAR AE
ENCODING 198
SWIDTH 617 0
DWIDTH 9 0
BBX 9 15 0 -3
BITMAP
0000
0000
1f80
1f00
1e00
3600
3780
3700
3e00
6600
6780
6700
0000
0000
0000
ENDCHAR

STARTCHAR Ccedilla
ENCODING 199
SWIDTH 617 0
DWIDTH 9 0
BBX 9 15 0 -3
BITMAP
0000
0000
0f00
1980
3000
6000
6000
6000
6000
6000
3180
1f00
0600
0c00
7800
ENDCHAR

STARTCHAR Egrave
ENCODING 200
SWIDTH 617 0
DWIDTH 9 0
BBX 9 15 0 -3
BITMAP
3000
1800
0c00
0f00
7800
6000
6f00
7800
6000
6000
6f00
7800
0000
0000
0000
ENDCHAR

STARTCHAR Eacute
ENCODING 201
SWIDTH 617 0
DWIDTH 9 0
BBX 9 15 0 -3
BITMAP
0c00
1800
3000
0f00
7800
6000
6f00
7800
6000
6000
6f00
7800
0000
0000
0000
ENDCHAR

STARTCHAR Ecircumflex
ENCODING 202
SWIDTH 617 0
DWIDTH 9 0
BBX 9 15 0 -3
BITMAP
0c00
1e00
3000
0f00
7800
6000
6f00
7800
6000
6000
6f00
7800
0000
0000
0000
ENDCHAR

STARTCHAR Edieresis
ENCODING 203
SWIDTH 617 0
DWIDTH 9 0
BBX 9 15 0 -3
BITMAP
3300
3300
0000
0f00
7800
6000
6f00
7800
6000
6000
6f00
7800
0000
0000
0000
ENDCHAR

STARTCHAR Igrave
ENCODING 204
SWIDTH 617 0
DWIDTH 9 0
BBX 9 15 0 -3
BITMAP
1800
0c00
0600
0e00
1c00
0c00
0c00
0c00
0c00
0c00
0e00
1c00
0000
0000
0000
ENDCHAR

STARTCHAR Iacute
ENCODING 205
SWIDTH 617 0
DWIDTH 9 0
BBX 9 15 0 -3
BITMAP
0600
0c00
1800
0e00
1c00
0c00
0c00
0c00
0c00
0c00
0e00
1c00
0000
0000
0000
ENDCHAR

STARTCHAR Icircumflex
ENCODING 206
SWIDTH 617 0
DWIDTH 9 0
BBX 9 15 0 -3
BITMAP
0c00
1e00
3000
0e00
1c00
0c00
0c00
0c00
0c00
0c00
0e00
1c00
0000
0000
0000
ENDCHAR

STARTCHAR Idieresis
ENCODING 207
SWIDTH 617 0
DWIDTH 9 0
BBX 9 15 0 -3
BITMAP
3300
3300
0000
0e00
1c00
0c00
0c00
0c00
0c00
0c00
0e00
1c00
0000
0000
0000
ENDCHAR

STARTCHAR Eth
ENCODING 208
SWIDTH 617 0
DWIDTH 9 0
BBX 9 15 0 -3
BITMAP
0000
0000
3e00
3300
3180
3180
7980
3180
3180
3300
3e00
3800
0000
0000
0000
ENDCHAR

STARTCHAR Ntilde
ENCODING 209
SWIDTH 617 0
DWIDTH 9 0
BBX 9 15 0 -3
BITMAP
0180
3b00
6e00
0000
6180
7180
7980
6980
6d80
6780
6380
6180
0000
0000
0000
ENDCHAR

STARTCHAR Ograve
ENCODING 210
SWIDTH 617 0
DWIDTH 9 0
BBX 9 15 0 -3
BITMAP
1800
0c00
0000
1f00
3180
6180
6180
6180
6180
6180
6300
3e00
0000
0000
0000
ENDCHAR

STARTCHAR Oacute
ENCODING 211
SWIDTH 617 0
DWIDTH 9 0
BBX 9 15 0 -3
BITMAP
0600
0c00
0000
1f00
3180
6180
6180
6180
6180
6180
6300
3e00
0000
0000
0000
ENDCHAR

STARTCHAR Ocircumflex
ENCODING 212
SWIDTH 617 0
DWIDTH 9 0
BBX 9 15 0 -3
BITMAP
0c00
1e00
3000
1f00
3180
6180
6180
6180
6180
6180
6300
3e00
0000
0000
0000
ENDCHAR

STARTCHAR Otilde
ENCODING 213
SWIDTH 617 0
DWIDTH 9 0
BBX 9 15 0 -3
BITMAP
0180
3b00
6e00
1f00
3180
6180
6180
6180
6180
6180
6300
3e00
0000
0000
0000
ENDCHAR

STARTCHAR Odieresis
ENCODING 214
SWIDTH 617 0
DWIDTH 9 0
BBX 9 15 0 -3
BITMAP
3300
3300
0000
1f00
3180
6180
6180
6180
6180
6180
6300
3e00
0000
0000
0000
ENDCHAR

STARTCHAR multiply
ENCODING 215
SWIDTH 617 0
DWIDTH 9 0
BBX 9 15 0 -3
BITMAP
0000
0000
0000
0000
0000
3300
1e00
0c00
1e00
3300
0000
0000
0000
0000
0000
ENDCHAR

STARTCHAR Oslash
ENCODING 216
SWIDTH 617 0
DWIDTH 9 0
BBX 9 15 0 -3
BITMAP
0000
0300
1f00
3380
6780
6580
6d80
6980
6980
7980
7300
3e00
3000
0000
0000
ENDCHAR

STARTCHAR Ugrave
ENCODING 217
SWIDTH 617 0
DWIDTH 9 0
BBX 9 15 0 -3
BITMAP
1800
0c00
0600
6180
6180
6180
6180
6180
6300
6300
6600
3c00
0000
0000
0000
ENDCHAR

STARTCHAR Uacute
ENCODING 218
SWIDTH 617 0
DWIDTH 9 0
BBX 9 15 0 -3
BITMAP
0600
0c00
1800
6180
6180
6180
6180
6180
6300
6300
6600
3c00
0000
0000
0000
ENDCHAR

STARTCHAR Ucircumflex
ENCODING 219
SWIDTH 617 0
DWIDTH 9 0
BBX 9 15 0 -3
BITMAP
0c00
1e00
3000
0180
6180
6180
6180
6180
6300
6300
6600
3c00
0000
0000
0000
ENDCHAR

STARTCHAR Udieresis
ENCODING 220
SWIDTH 617 0
DWIDTH 9 0
BBX 9 15 0 -3
BITMAP
3300
3300
0000
6180
6180
6180
6180
6180
6300
6300
6600
3c00
0000
0000
0000
ENDCHAR

STARTCHAR Yacute
ENCODING 221
SWIDTH 617 0
DWIDTH 9 0
BBX 9 15 0 -3
BITMAP
0600
0c00
1800
6180
6180
3300
3300
1e00
0c00
0c00
0c00
0c00
0000
0000
0000
ENDCHAR

STARTCHAR Thorn
ENCODING 222
SWIDTH 617 0
DWIDTH 9 0
BBX 9 15 0 -3
BITMAP
0000
0000
6000
6000
6f00
7980
6180
6180
6300
7e00
6000
6000
0000
0000
0000
ENDCHAR

STARTCHAR germandbls
ENCODING 223
SWIDTH 617 0
DWIDTH 9 0
BBX 9 15 0 -3
BITMAP
0000
0000
0f00
1980
7180
6100
6600
6100
6180
6180
6700
6c00
0000
0000
0000
ENDCHAR

STARTCHAR agrave
ENCODING 224
SWIDTH 617 0
DWIDTH 9 0
BBX 9 15 0 -3
BITMAP
0000
1800
0c00
0600
0000
1f00
3180
0f80
3980
6180
6780
3d80
0000
0000
0000
ENDCHAR

STARTCHAR aacute
ENCODING 225
SWIDTH 617 0
DWIDTH 9 0
BBX 9 15 0 -3
BITMAP
0000
0300
0600
0c00
0000
1f00
3180
0f80
3980
6180
6780
3d80
0000
0000
0000
ENDCHAR

STARTCHAR acircumflex
ENCODING 226
SWIDTH 617 0
DWIDTH 9 0
BBX 9 15 0 -3
BITMAP
0600
0f00
1980
3000
0000
1f00
3180
0f80
3980
6180
6780
3d80
0000
0000
0000
ENDCHAR

STARTCHAR atilde
ENCODING 227
SWIDTH 617 0
DWIDTH 9 0
BBX 9 15 0 -3
BITMAP
0000
0180
3b00
6e00
0000
1f00
3180
0f80
3980
6180
6780
3d80
0000
0000
0000
ENDCHAR

STARTCHAR adieresis
ENCODING 228
SWIDTH 617 0
DWIDTH 9 0
BBX 9 15 0 -3
BITMAP
0000
0000
1b00
1b00
0000
1f00
3180
0f80
3980
6180
6780
3d80
0000
0000
0000
ENDCHAR

STARTCHAR aring
ENCODING 229
SWIDTH 617 0
DWIDTH 9 0
BBX 9 15 0 -3
BITMAP
0e00
1b00
1b00
0e00
0000
1f00
3180
0f80
3980
6180
6780
3d80
0000
0000
0000
ENDCHAR

STARTCHAR ae
ENCODING 230
SWIDTH 617 0
DWIDTH 9 0
BBX 9 15 0 -3
BITMAP
0000
0000
0000
0000
0000
3f00
6d80
1d80
3f00
6e00
6d80
3700
0000
0000
0000
ENDCHAR

STARTCHAR ccedilla
ENCODING 231
SWIDTH 617 0
DWIDTH 9 0
BBX 9 15 0 -3
BITMAP
0000
0000
0000
0000
0000
0f00
1980
3000
6000
6000
6180
3f00
0600
0c00
7800
ENDCHAR

STARTCHAR egrave
ENCODING 232
SWIDTH 617 0
DWIDTH 9 0
BBX 9 15 0 -3
BITMAP
0000
3000
1800
0c00
0000
1f00
3180
6700
7c00
6000
6180
3f00
0000
0000
0000
ENDCHAR

STARTCHAR eacute
ENCODING 233
SWIDTH 617 0
DWIDTH 9 0
BBX 9 15 0 -3
BITMAP
0000
0300
0600
0c00
0000
1f00
3180
6700
7c00
6000
6180
3f00
0000
0000
0000
ENDCHAR

STARTCHAR ecircumflex
ENCODING 234
SWIDTH 617 0
DWIDTH 9 0
BBX 9 15 0 -3
BITMAP
0c00
1e00
3300
6000
0000
1f00
3180
6700
7c00
6000
6180
3f00
0000
0000
0000
ENDCHAR

STARTCHAR edieresis
ENCODING 235
SWIDTH 617 0
DWIDTH 9 0
BBX 9 15 0 -3
BITMAP
0000
0000
3300
3300
0000
1f00
3180
6700
7c00
6000
6180
3f00
0000
0000
0000
ENDCHAR

STARTCHAR igrave
ENCODING 236
SWIDTH 617 0
DWIDTH 9 0
BBX 9 15 0 -3
BITMAP
0000
3000
1800
0c00
0000
0c00
0c00
0c00
0c00
0c00
0c00
0c00
0000
0000
0000
ENDCHAR

STARTCHAR iacute
ENCODING 237
SWIDTH 617 0
DWIDTH 9 0
BBX 9 15 0 -3
BITMAP
0000
0300
0600
0c00
0000
0c00
0c00
0c00
0c00
0c00
0c00
0c00
0000
0000
0000
ENDCHAR

STARTCHAR icircumflex
ENCODING 238
SWIDTH 617 0
DWIDTH 9 0
BBX 9 15 0 -3
BITMAP
0c00
1e00
3300
6000
0000
0c00
0c00
0c00
0c00
0c00
0c00
0c00
0000
0000
0000
ENDCHAR

STARTCHAR idieresis
ENCODING 239
SWIDTH 617 0
DWIDTH 9 0
BBX 9 15 0 -3
BITMAP
0000
0000
3300
3300
0000
0c00
0c00
0c00
0c00
0c00
0c00
0c00
0000
0000
0000
ENDCHAR

STARTCHAR eth
ENCODING 240
SWIDTH 617 0
DWIDTH 9 0
BBX 9 15 0 -3
BITMAP
0000
3000
1e00
3c00
0600
1f00
3180
6180
6180
6180
6300
3e00
0000
0000
0000
ENDCHAR

STARTCHAR ntilde
ENCODING 241
SWIDTH 617 0
DWIDTH 9 0
BBX 9 15 0 -3
BITMAP
0000
0180
3b00
6e00
0000
6700
6d80
7980
7180
6180
6180
6180
0000
0000
0000
ENDCHAR

STARTCHAR ograve
ENCODING 242
SWIDTH 617 0
DWIDTH 9 0
BBX 9 15 0 -3
BITMAP
0000
3000
1800
0c00
0000
1f00
3180
6180
6180
6180
6300
3e00
0000
0000
0000
ENDCHAR

STARTCHAR oacute
ENCODING 243
SWIDTH 617 0
DWIDTH 9 0
BBX 9 15 0 -3
BITMAP
0000
0300
0600
0c00
0000
1f00
3180
6180
6180
6180
6300
3e00
0000
0000
0000
ENDCHAR

STARTCHAR ocircumflex
ENCODING 244
SWIDTH 617 0
DWIDTH 9 0
BBX 9 15 0 -3
BITMAP
0c00
1e00
3300
6000
0000
1f00
3180
6180
6180
6180
6300
3e00
0000
0000
0000
ENDCHAR

STARTCHAR otilde
ENCODING 245
SWIDTH 617 0
DWIDTH 9 0
BBX 9 15 0 -3
BITMAP
0000
0180
3b00
6e00
0000
1f00
3180
6180
6180
6180
6300
3e00
0000
0000
0000
ENDCHAR

STARTCHAR odieresis
ENCODING 246
SWIDTH 617 0
DWIDTH 9 0
BBX 9 15 0 -3
BITMAP
0000
0000
3300
3300
0000
1f00
3180
6180
6180
6180
6300
3e00
0000
0000
0000
ENDCHAR

STARTCHAR divide
ENCODING 247
SWIDTH 617 0
DWIDTH 9 0
BBX 9 15 0 -3
BITMAP
0000
0000
0000
0000
0c00
0c00
0000
7f80
0000
0c00
0c00
0000
0000
0000
0000
ENDCHAR

STARTCHAR oslash
ENCODING 248
SWIDTH 617 0
DWIDTH 9 0
BBX 9 15 0 -3
BITMAP
0000
0000
0000
0000
0300
1f00
3780
6580
6d80
6980
7b00
3e00
3000
0000
0000
ENDCHAR

STARTCHAR ugrave
ENCODING 249
SWIDTH 617 0
DWIDTH 9 0
BBX 9 15 0 -3
BITMAP
0000
3000
1800
0c00
0000
6180
6180
6180
6380
6780
6d80
3980
0000
0000
0000
ENDCHAR

STARTCHAR uacute
ENCODING 250
SWIDTH 617 0
DWIDTH 9 0
BBX 9 15 0 -3
BITMAP
0000
0600
0c00
1800
0000
6180
6180
6180
6380
6780
6d80
3980
0000
0000
0000
ENDCHAR

STARTCHAR ucircumflex
ENCODING 251
SWIDTH 617 0
DWIDTH 9 0
BBX 9 15 0 -3
BITMAP
0c00
1e00
3300
6000
0000
6180
6180
6180
6380
6780
6d80
3980
0000
0000
0000
ENDCHAR

STARTCHAR udieresis
ENCODING 252
SWIDTH 617 0
DWIDTH 9 0
BBX 9 15 0 -3
BITMAP
0000
0000
3300
3300
0000
6180
6180
6180
6380
6780
6d80
3980
0000
0000
0000
ENDCHAR

STARTCHAR yacute
ENCODING 253
SWIDTH 617 0
DWIDTH 9 0
BBX 9 15 0 -3
BITMAP
0000
0600
0c00
1800
0000
6180
6180
6180
6180
6180
3300
1f00
0600
6c00
3800
ENDCHAR

STARTCHAR thorn
ENCODING 254
SWIDTH 617 0
DWIDTH 9 0
BBX 9 15 0 -3
BITMAP
0000
0000
0000
6000
6000
6f00
7980
6180
6180
6180
6300
7e00
6000
6000
0000
ENDCHAR

STARTCHAR ydieresis
ENCODING 255
SWIDTH 617 0
DWIDTH 9 0
BBX 9 15 0 -3
BITMAP
0000
0000
3300
3300
0000
6180
6180
6180
6180
6180
3300
1f00
0600
6c00
3800
ENDCHAR

STARTCHAR uni0100
ENCODING 256
SWIDTH 617 0
DWIDTH 9 0
BBX 9 15 0 -3
BITMAP
3F00
0000
0C00
0C00
1E00
1200
3300
3700
3D00
6180
6180
6180
0000
0000
0000
ENDCHAR

STARTCHAR uni0101
ENCODING 257
SWIDTH 617 0
DWIDTH 9 0
BBX 9 15 0 -3
BITMAP
0000
0000
0000
3F00
0000
1F00
3180
0F80
3980
6180
6780
3D80
0000
0000
0000
ENDCHAR

STARTCHAR uni0112
ENCODING 274
SWIDTH 617 0
DWIDTH 9 0
BBX 9 15 0 -3
BITMAP
3F00
0000
0F00
7800
6000
6000
6E00
7800
6000
6000
6F00
7800
0000
0000
0000
ENDCHAR

STARTCHAR uni0113
ENCODING 275
SWIDTH 617 0
DWIDTH 9 0
BBX 9 15 0 -3
BITMAP
0000
0000
0000
3F00
0000
1F00
3180
6700
7C00
6000
6180
3F00
0000
0000
0000
ENDCHAR

STARTCHAR uni012a
ENCODING 298
SWIDTH 617 0
DWIDTH 9 0
BBX 9 15 0 -3
BITMAP
3F00
0000
0E00
1C00
0C00
0C00
0C00
0C00
0C00
0C00
0E00
1C00
0000
0000
0000
ENDCHAR

STARTCHAR uni012b
ENCODING 299
SWIDTH 617 0
DWIDTH 9 0
BBX 9 15 0 -3
BITMAP
0000
0000
0000
3F00
0000
0C00
0C00
0C00
0C00
0C00
0C00
0C00
0000
0000
0000
ENDCHAR

STARTCHAR uni014c
ENCODING 332
SWIDTH 617 0
DWIDTH 9 0
BBX 9 15 0 -3
BITMAP
3F00
0000
1F00
3180
6180
6180
6180
6180
6180
6180
6300
3E00
0000
0000
0000
ENDCHAR

STARTCHAR uni014d
ENCODING 333
SWIDTH 617 0
DWIDTH 9 0
BBX 9 15 0 -3
BITMAP
0000
0000
0000
3F00
0000
1F00
3180
6180
6180
6180
6300
3E00
0000
0000
0000
ENDCHAR

STARTCHAR uni0150
ENCODING 336
SWIDTH 617 0
DWIDTH 9 0
BBX 9 15 0 -3
BITMAP
0D80
1B00
3600
1F00
3180
6180
6180
6180
6180
6180
6300
3E00
0000
0000
0000
ENDCHAR

STARTCHAR uni0151
ENCODING 337
SWIDTH 617 0
DWIDTH 9 0
BBX 9 15 0 -3
BITMAP
0000
0D80
1B00
3600
0000
1F00
3180
6180
6180
6180
6300
3E00
0000
0000
0000
ENDCHAR

STARTCHAR OE
ENCODING 338
SWIDTH 617 0
DWIDTH 9 0
BBX 9 15 0 -3
BITMAP
0000
0000
3F80
7F00
6C00
6C00
6F80
6F00
6C00
6C00
6F80
3F00
0000
0000
0000
ENDCHAR

STARTCHAR oe
ENCODING 339
SWIDTH 617 0
DWIDTH 9 0
BBX 9 15 0 -3
BITMAP
0000
0000
0000
0000
0000
3F00
7D80
6D80
6F00
6E00
6D80
3B00
0000
0000
0000
ENDCHAR

STARTCHAR Scaron
ENCODING 352
SWIDTH 617 0
DWIDTH 9 0
BBX 9 15 0 -3
BITMAP
3300
1E00
3F00
6180
6000
3800
0E00
0300
0180
6180
6180
3F00
0000
0000
0000
ENDCHAR

STARTCHAR scaron
ENCODING 353
SWIDTH 617 0
DWIDTH 9 0
BBX 9 15 0 -3
BITMAP
0000
3300
1E00
0C00
0000
3F00
6180
3800
0F00
0180
6180
3F00
0000
0000
0000
ENDCHAR

STARTCHAR uni016a
ENCODING 362
SWIDTH 617 0
DWIDTH 9 0
BBX 9 15 0 -3
BITMAP
3F00
0000
6180
6180
6180
6180
6180
6180
6300
6300
6600
3C00
0000
0000
0000
ENDCHAR

STARTCHAR uni016b
ENCODING 363
SWIDTH 617 0
DWIDTH 9 0
BBX 9 15 0 -3
BITMAP
0000
0000
3F00
0000
6180
6180
6180
6180
6380
6780
6D80
3980
0000
0000
0000
ENDCHAR

STARTCHAR uring
ENCODING 367
SWIDTH 617 0
DWIDTH 9 0
BBX 9 15 0 -3
BITMAP
0e00
1b00
1b00
0e00
0000
6180
6180
6180
6380
6780
6d80
3980
0000
0000
0000
ENDCHAR

STARTCHAR Ydieresis
ENCODING 376
SWIDTH 617 0
DWIDTH 9 0
BBX 9 15 0 -3
BITMAP
3300
0000
6180
6180
3300
3300
1E00
0C00
0C00
0C00
0C00
0C00
0000
0000
0000
ENDCHAR

STARTCHAR Zcaron
ENCODING 381
SWIDTH 617 0
DWIDTH 9 0
BBX 9 15 0 -3
BITMAP
3300
1E00
0F80
7B00
0200
0600
0C00
0800
1800
1000
3780
7C00
0000
0000
0000
ENDCHAR

STARTCHAR zcaron
ENCODING 382
SWIDTH 617 0
DWIDTH 9 0
BBX 9 15 0 -3
BITMAP
0000
3300
1E00
0C00
0000
7F80
0300
0600
0C00
1800
3000
7F80
0000
0000
0000
ENDCHAR

STARTCHAR florin
ENCODING 402
SWIDTH 617 0
DWIDTH 9 0
BBX 9 15 0 -3
BITMAP
0000
0000
0F00
1980
1800
1800
1E00
7800
1800
1800
1800
5800
3000
0000
0000
ENDCHAR

STARTCHAR circumflex
ENCODING 710
SWIDTH 617 0
DWIDTH 9 0
BBX 9 15 0 -3
BITMAP
0600
0F00
1980
3000
0000
0000
0000
0000
0000
0000
0000
0000
0000
0000
0000
ENDCHAR

STARTCHAR tilde
ENCODING 732
SWIDTH 617 0
DWIDTH 9 0
BBX 9 15 0 -3
BITMAP
0180
3B00
6E00
0000
0000
0000
0000
0000
0000
0000
0000
0000
0000
0000
0000
ENDCHAR

STARTCHAR Alphatonos
ENCODING 902
SWIDTH 617 0
DWIDTH 9 0
BBX 9 15 0 -3
BITMAP
1800
3000
6C00
0C00
1E00
1200
3300
3700
3D00
7180
6180
6180
0000
0000
0000
ENDCHAR

STARTCHAR Epsilontonos
ENCODING 904
SWIDTH 617 0
DWIDTH 9 0
BBX 9 15 0 -3
BITMAP
1800
3000
6F00
1800
7000
6000
6E00
7800
6000
6000
6F00
7800
0000
0000
0000
ENDCHAR

STARTCHAR Etatonos
ENCODING 905
SWIDTH 617 0
DWIDTH 9 0
BBX 9 15 0 -3
BITMAP
1800
3000
6180
0180
6180
6180
6780
7D80
6180
6180
6180
6180
0000
0000
0000
ENDCHAR

STARTCHAR Iotatonos
ENCODING 906
SWIDTH 617 0
DWIDTH 9 0
BBX 9 15 0 -3
BITMAP
1800
3000
6E00
1C00
0C00
0C00
0C00
0C00
0C00
0C00
0E00
1C00
0000
0000
0000
ENDCHAR

STARTCHAR Omicrontonos
ENCODING 908
SWIDTH 617 0
DWIDTH 9 0
BBX 9 15 0 -3
BITMAP
1800
3000
6F00
1980
3180
6180
6180
6180
6180
6180
6300
3E00
0000
0000
0000
ENDCHAR

STARTCHAR Upsilontonos
ENCODING 910
SWIDTH 617 0
DWIDTH 9 0
BBX 9 15 0 -3
BITMAP
1800
3000
6180
1180
3300
3300
1E00
0C00
0C00
0C00
0C00
0C00
0000
0000
0000
ENDCHAR

STARTCHAR Omegatonos
ENCODING 911
SWIDTH 617 0
DWIDTH 9 0
BBX 9 15 0 -3
BITMAP
1800
3000
6F00
1980
3180
6180
6180
6180
6180
3300
3300
7380
0000
0000
0000
ENDCHAR

STARTCHAR iotadieresistonos
ENCODING 912
SWIDTH 617 0
DWIDTH 9 0
BBX 9 15 0 -3
BITMAP
0C00
1800
6600
6600
0000
1800
1800
1800
1800
1800
1B00
0E00
0000
0000
0000
ENDCHAR

STARTCHAR Alpha
ENCODING 913
SWIDTH 617 0
DWIDTH 9 0
BBX 9 15 0 -3
BITMAP
0000
0000
0C00
0C00
1E00
1200
3300
3700
3D00
7180
6180
6180
0000
0000
0000
ENDCHAR

STARTCHAR Beta
ENCODING 914
SWIDTH 617 0
DWIDTH 9 0
BBX 9 15 0 -3
BITMAP
0000
0000
0F00
1980
7180
6300
6E00
7B80
6180
6300
6E00
7800
0000
0000
0000
ENDCHAR

STARTCHAR Gamma
ENCODING 915
SWIDTH 617 0
DWIDTH 9 0
BBX 9 15 0 -3
BITMAP
0000
0000
0F80
7980
3000
3000
3000
3000
3000
3000
3000
3000
0000
0000
0000
ENDCHAR

STARTCHAR Deltagreek
ENCODING 916
SWIDTH 617 0
DWIDTH 9 0
BBX 9 15 0 -3
BITMAP
0000
0000
0C00
0C00
1E00
1200
3300
3300
2100
6180
7F80
7F80
0000
0000
0000
ENDCHAR

STARTCHAR Epsilon
ENCODING 917
SWIDTH 617 0
DWIDTH 9 0
BBX 9 15 0 -3
BITMAP
0000
0000
0F00
7800
6000
6000
6E00
7800
6000
6000
6F00
7800
0000
0000
0000
ENDCHAR

STARTCHAR Zeta
ENCODING 918
SWIDTH 617 0
DWIDTH 9 0
BBX 9 15 0 -3
BITMAP
0000
0000
0F80
7B00
0200
0600
0C00
0800
1800
1000
3780
7C00
0000
0000
0000
ENDCHAR

STARTCHAR Eta
ENCODING 919
SWIDTH 617 0
DWIDTH 9 0
BBX 9 15 0 -3
BITMAP
0000
0000
6180
6180
6180
6180
6780
7D80
6180
6180
6180
6180
0000
0000
0000
ENDCHAR

STARTCHAR Theta
ENCODING 920
SWIDTH 617 0
DWIDTH 9 0
BBX 9 15 0 -3
BITMAP
0000
0000
1F00
3180
6180
6180
6F80
7D80
6180
6180
6300
3E00
0000
0000
0000
ENDCHAR

STARTCHAR Iota
ENCODING 921
SWIDTH 617 0
DWIDTH 9 0
BBX 9 15 0 -3
BITMAP
0000
0000
0E00
1C00
0C00
0C00
0C00
0C00
0C00
0C00
0E00
1C00
0000
0000
0000
ENDCHAR

STARTCHAR Kappa
ENCODING 922
SWIDTH 617 0
DWIDTH 9 0
BBX 9 15 0 -3
BITMAP
0000
0000
6180
6300
6E00
7800
7000
7800
6C00
6600
6300
6180
0000
0000
0000
ENDCHAR

STARTCHAR Lambda
ENCODING 923
SWIDTH 617 0
DWIDTH 9 0
BBX 9 15 0 -3
BITMAP
0000
0000
0C00
0C00
1E00
1200
3300
3300
2100
6180
6180
6180
0000
0000
0000
ENDCHAR

STARTCHAR Mu
ENCODING 924
SWIDTH 617 0
DWIDTH 9 0
BBX 9 15 0 -3
BITMAP
0000
0000
6180
6180
7380
7780
7D80
6980
6180
6180
6180
6180
0000
0000
0000
ENDCHAR

STARTCHAR Nu
ENCODING 925
SWIDTH 617 0
DWIDTH 9 0
BBX 9 15 0 -3
BITMAP
0000
0000
6180
6180
7180
7980
6980
6D80
6780
6380
6180
6180
0000
0000
0000
ENDCHAR

STARTCHAR Xi
ENCODING 926
SWIDTH 617 0
DWIDTH 9 0
BBX 9 15 0 -3
BITMAP
0000
0000
0F80
7D80
6000
0000
0F00
3C00
0000
0180
6F80
7C00
0000
0000
0000
ENDCHAR

STARTCHAR Omicron
ENCODING 927
SWIDTH 617 0
DWIDTH 9 0
BBX 9 15 0 -3
BITMAP
0000
0000
1F00
3180
6180
6180
6180
6180
6180
6180
6300
3E00
0000
0000
0000
ENDCHAR

STARTCHAR Pi
ENCODING 928
SWIDTH 617 0
DWIDTH 9 0
BBX 9 15 0 -3
BITMAP
0000
0000
0F80
7B00
3300
3300
3300
3300
3300
3300
3300
3300
0000
0000
0000
ENDCHAR

STARTCHAR Rho
ENCODING 929
SWIDTH 617 0
DWIDTH 9 0
BBX 9 15 0 -3
BITMAP
0000
0000
0F00
1980
7180
6180
6300
6E00
7800
6000
6000
6000
0000
0000
0000
ENDCHAR

STARTCHAR Sigma
ENCODING 931
SWIDTH 617 0
DWIDTH 9 0
BBX 9 15 0 -3
BITMAP
0000
0000
0F80
7800
3000
1800
0C00
0C00
1800
3000
6780
7C00
0000
0000
0000
ENDCHAR

STARTCHAR Tau
ENCODING 932
SWIDTH 617 0
DWIDTH 9 0
BBX 9 15 0 -3
BITMAP
0000
0000
0780
7C00
0C00
0C00
0C00
0C00
0C00
0C00
0C00
0C00
0000
0000
0000
ENDCHAR

STARTCHAR Upsilon
ENCODING 933
SWIDTH 617 0
DWIDTH 9 0
BBX 9 15 0 -3
BITMAP
0000
0000
6180
6180
3300
3300
1E00
0C00
0C00
0C00
0C00
0C00
0000
0000
0000
ENDCHAR

STARTCHAR Phi
ENCODING 934
SWIDTH 617 0
DWIDTH 9 0
BBX 9 15 0 -3
BITMAP
0000
0000
0C00
1F00
3D80
6D80
6D80
6D80
6D80
6F00
3E00
0C00
0000
0000
0000
ENDCHAR

STARTCHAR Chi
ENCODING 935
SWIDTH 617 0
DWIDTH 9 0
BBX 9 15 0 -3
BITMAP
0000
0000
6180
6180
3300
3300
1E00
1E00
3300
3300
6180
6180
0000
0000
0000
ENDCHAR

STARTCHAR Psi
ENCODING 936
SWIDTH 617 0
DWIDTH 9 0
BBX 9 15 0 -3
BITMAP
0000
0000
0D80
6D80
6D80
6D80
6D80
6F00
3C00
0C00
0C00
0C00
0000
0000
0000
ENDCHAR

STARTCHAR Omegagreek
ENCODING 937
SWIDTH 617 0
DWIDTH 9 0
BBX 9 15 0 -3
BITMAP
0000
0000
1F00
3180
6180
6180
6180
6180
6180
3300
3300
7380
0000
0000
0000
ENDCHAR

STARTCHAR Iotadieresis
ENCODING 938
SWIDTH 617 0
DWIDTH 9 0
BBX 9 15 0 -3
BITMAP
3300
3300
0000
0E00
1C00
0C00
0C00
0C00
0C00
0C00
0E00
1C00
0000
0000
0000
ENDCHAR

STARTCHAR Upsilondieresis
ENCODING 939
SWIDTH 617 0
DWIDTH 9 0
BBX 9 15 0 -3
BITMAP
3300
3300
0000
6180
6180
3300
1E00
0C00
0C00
0C00
0C00
0C00
0000
0000
0000
ENDCHAR

STARTCHAR alphatonos
ENCODING 940
SWIDTH 617 0
DWIDTH 9 0
BBX 9 15 0 -3
BITMAP
0000
0600
0C00
1800
0000
1D80
3700
6600
6600
6600
6F00
3980
0000
0000
0000
ENDCHAR

STARTCHAR epsilontonos
ENCODING 941
SWIDTH 617 0
DWIDTH 9 0
BBX 9 15 0 -3
BITMAP
0000
0600
0C00
1800
0000
1F00
3180
6000
3C00
6000
6180
3F00
0000
0000
0000
ENDCHAR

STARTCHAR etatonos
ENCODING 942
SWIDTH 617 0
DWIDTH 9 0
BBX 9 15 0 -3
BITMAP
0000
0600
0C00
1800
0000
6700
6D80
7980
7180
6180
6180
6180
0180
0180
0180
ENDCHAR

STARTCHAR iotatonos
ENCODING 943
SWIDTH 617 0
DWIDTH 9 0
BBX 9 15 0 -3
BITMAP
0000
0600
0C00
1800
0000
1800
1800
1800
1800
1800
1B00
0E00
0000
0000
0000
ENDCHAR

STARTCHAR upsilondieresistonos
ENCODING 944
SWIDTH 617 0
DWIDTH 9 0
BBX 9 15 0 -3
BITMAP
0600
0C00
3300
3300
0000
6300
6180
6180
6180
6300
6600
3C00
0000
0000
0000
ENDCHAR

STARTCHAR alpha
ENCODING 945
SWIDTH 617 0
DWIDTH 9 0
BBX 9 15 0 -3
BITMAP
0000
0000
0000
0000
0000
1D80
3700
6600
6600
6600
6F00
3980
0000
0000
0000
ENDCHAR

STARTCHAR beta
ENCODING 946
SWIDTH 617 0
DWIDTH 9 0
BBX 9 15 0 -3
BITMAP
0000
0000
0F00
1980
7180
6100
6600
6100
6180
6180
6700
6C00
6000
6000
0000
ENDCHAR

STARTCHAR gamma
ENCODING 947
SWIDTH 617 0
DWIDTH 9 0
BBX 9 15 0 -3
BITMAP
0000
0000
0000
0000
0000
6180
3180
3180
1B00
1B00
0E00
0C00
0C00
1800
1800
ENDCHAR

STARTCHAR delta
ENCODING 948
SWIDTH 617 0
DWIDTH 9 0
BBX 9 15 0 -3
BITMAP
0000
0380
0E00
1800
0C00
1E00
3300
6300
6300
6300
6600
3C00
0000
0000
0000
ENDCHAR

STARTCHAR epsilon
ENCODING 949
SWIDTH 617 0
DWIDTH 9 0
BBX 9 15 0 -3
BITMAP
0000
0000
0000
0000
0000
1F00
3180
6000
3C00
6000
6180
3F00
0000
0000
0000
ENDCHAR

STARTCHAR zeta
ENCODING 950
SWIDTH 617 0
DWIDTH 9 0
BBX 9 15 0 -3
BITMAP
0000
0000
3180
1F00
1800
3000
3000
6000
6000
6000
6000
3F00
0180
0180
0700
ENDCHAR

STARTCHAR eta
ENCODING 951
SWIDTH 617 0
DWIDTH 9 0
BBX 9 15 0 -3
BITMAP
0000
0000
0000
0000
0000
6700
6D80
7980
7180
6180
6180
6180
0180
0180
0180
ENDCHAR

STARTCHAR theta
ENCODING 952
SWIDTH 617 0
DWIDTH 9 0
BBX 9 15 0 -3
BITMAP
0000
0000
1C00
3600
3300
6300
6F00
7B00
6300
6600
3600
1C00
0000
0000
0000
ENDCHAR

STARTCHAR iota
ENCODING 953
SWIDTH 617 0
DWIDTH 9 0
BBX 9 15 0 -3
BITMAP
0000
0000
0000
0000
0000
1800
1800
1800
1800
1800
1B00
0E00
0000
0000
0000
ENDCHAR

STARTCHAR kappa
ENCODING 954
SWIDTH 617 0
DWIDTH 9 0
BBX 9 15 0 -3
BITMAP
0000
0000
0000
0000
0000
6300
6600
6C00
7800
6C00
6600
6300
0000
0000
0000
ENDCHAR

STARTCHAR lambda
ENCODING 955
SWIDTH 617 0
DWIDTH 9 0
BBX 9 15 0 -3
BITMAP
0000
0000
1800
1800
0C00
0C00
0E00
1B00
1B00
3180
3180
6180
0000
0000
0000
ENDCHAR

STARTCHAR mugreek
ENCODING 956
SWIDTH 617 0
DWIDTH 9 0
BBX 9 15 0 -3
BITMAP
0000
0000
0000
0000
0000
3180
3180
3180
3180
3380
3780
3D80
3000
3000
6000
ENDCHAR

STARTCHAR nu
ENCODING 957
SWIDTH 617 0
DWIDTH 9 0
BBX 9 15 0 -3
BITMAP
0000
0000
0000
0000
0000
6180
3180
1980
1B00
0F00
0E00
0C00
0000
0000
0000
ENDCHAR

STARTCHAR xi
ENCODING 958
SWIDTH 617 0
DWIDTH 9 0
BBX 9 15 0 -3
BITMAP
0000
0000
3180
1F00
1800
3000
3000
1E00
7000
6000
6000
3F00
0180
0180
0700
ENDCHAR

STARTCHAR omicron
ENCODING 959
SWIDTH 617 0
DWIDTH 9 0
BBX 9 15 0 -3
BITMAP
0000
0000
0000
0000
0000
1F00
3180
6180
6180
6180
6300
3E00
0000
0000
0000
ENDCHAR

STARTCHAR pi
ENCODING 960
SWIDTH 617 0
DWIDTH 9 0
BBX 9 15 0 -3
BITMAP
0000
0000
0000
0000
0000
3F80
7300
3300
3300
3300
3300
3300
0000
0000
0000
ENDCHAR

STARTCHAR rho
ENCODING 961
SWIDTH 617 0
DWIDTH 9 0
BBX 9 15 0 -3
BITMAP
0000
0000
0000
0000
0000
0F00
1980
3180
6180
6180
6300
7E00
6000
6000
6000
ENDCHAR

STARTCHAR sigmafinal
ENCODING 962
SWIDTH 617 0
DWIDTH 9 0
BBX 9 15 0 -3
BITMAP
0000
0000
0000
0000
0000
1F00
3180
6000
6000
6000
6000
3F00
0180
0180
0700
ENDCHAR

STARTCHAR sigma
ENCODING 963
SWIDTH 617 0
DWIDTH 9 0
BBX 9 15 0 -3
BITMAP
0000
0000
0000
0000
0000
1F80
3600
6300
6180
6180
6180
3F00
0000
0000
0000
ENDCHAR

STARTCHAR tau
ENCODING 964
SWIDTH 617 0
DWIDTH 9 0
BBX 9 15 0 -3
BITMAP
0000
0000
0000
0000
0000
7F80
0C00
0C00
1800
1800
1B00
0E00
0000
0000
0000
ENDCHAR

STARTCHAR upsilon
ENCODING 965
SWIDTH 617 0
DWIDTH 9 0
BBX 9 15 0 -3
BITMAP
0000
0000
0000
0000
0000
6300
6180
6180
6180
6300
6600
3C00
0000
0000
0000
ENDCHAR

STARTCHAR phi
ENCODING 966
SWIDTH 617 0
DWIDTH 9 0
BBX 9 15 0 -3
BITMAP
0000
0000
0000
0000
0000
2700
6D80
6D80
6D80
6D80
6F00
3E00
0C00
0C00
0C00
ENDCHAR

STARTCHAR chi
ENCODING 967
SWIDTH 617 0
DWIDTH 9 0
BBX 9 15 0 -3
BITMAP
0000
0000
0000
0000
0000
7180
1980
1B00
0E00
0E00
1C00
1C00
3600
6600
6380
ENDCHAR

STARTCHAR psi
ENCODING 968
SWIDTH 617 0
DWIDTH 9 0
BBX 9 15 0 -3
BITMAP
0000
0000
0000
0000
0000
0D80
6D80
6D80
6D80
6D80
6F00
3E00
0C00
0C00
0C00
ENDCHAR

STARTCHAR omega
ENCODING 969
SWIDTH 617 0
DWIDTH 9 0
BBX 9 15 0 -3
BITMAP
0000
0000
0000
0000
0000
3300
6180
6D80
6D80
6D80
6D80
3B00
0000
0000
0000
ENDCHAR

STARTCHAR iotadieresis
ENCODING 970
SWIDTH 617 0
DWIDTH 9 0
BBX 9 15 0 -3
BITMAP
0000
0000
6600
6600
0000
1800
1800
1800
1800
1800
1B00
0E00
0000
0000
0000
ENDCHAR

STARTCHAR upsilondieresis
ENCODING 971
SWIDTH 617 0
DWIDTH 9 0
BBX 9 15 0 -3
BITMAP
0000
0000
3300
3300
0000
6300
6180
6180
6180
6300
6600
3C00
0000
0000
0000
ENDCHAR

STARTCHAR omicrontonos
ENCODING 972
SWIDTH 617 0
DWIDTH 9 0
BBX 9 15 0 -3
BITMAP
0000
0600
0C00
1800
0000
1F00
3180
6180
6180
6180
6300
3E00
0000
0000
0000
ENDCHAR

STARTCHAR upsilontonos
ENCODING 973
SWIDTH 617 0
DWIDTH 9 0
BBX 9 15 0 -3
BITMAP
0000
0600
0C00
1800
0000
6300
6180
6180
6180
6300
6600
3C00
0000
0000
0000
ENDCHAR

STARTCHAR omegatonos
ENCODING 974
SWIDTH 617 0
DWIDTH 9 0
BBX 9 15 0 -3
BITMAP
0000
0600
0C00
1800
0000
3300
6180
6D80
6D80
6D80
6D80
3B00
0000
0000
0000
ENDCHAR

STARTCHAR phisymbolgreek
ENCODING 981
SWIDTH 617 0
DWIDTH 9 0
BBX 9 15 0 -3
BITMAP
0000
0000
0C00
0C00
0C00
1F00
3D80
6D80
6D80
6D80
6F00
3E00
0C00
0C00
0C00
ENDCHAR

STARTCHAR pisymbolgreek
ENCODING 982
SWIDTH 617 0
DWIDTH 9 0
BBX 9 15 0 -3
BITMAP
0000
0000
0000
0000
0000
7F80
3300
6D80
6D80
6D80
6D80
3B00
0000
0000
0000
ENDCHAR

STARTCHAR hyphentwo
ENCODING 8208
SWIDTH 617 0
DWIDTH 9 0
BBX 9 15 0 -3
BITMAP
0000
0000
0000
0000
0000
0000
0000
1F00
0000
0000
0000
0000
0000
0000
0000
ENDCHAR

STARTCHAR endash
ENCODING 8211
SWIDTH 617 0
DWIDTH 9 0
BBX 9 15 0 -3
BITMAP
0000
0000
0000
0000
0000
0000
0000
7F00
0000
0000
0000
0000
0000
0000
0000
ENDCHAR

STARTCHAR emdash
ENCODING 8212
SWIDTH 617 0
DWIDTH 9 0
BBX 9 15 0 -3
BITMAP
0000
0000
0000
0000
0000
0000
0000
7F80
0000
0000
0000
0000
0000
0000
0000
ENDCHAR

STARTCHAR quoteleft
ENCODING 8216
SWIDTH 617 0
DWIDTH 9 0
BBX 9 15 0 -3
BITMAP
0000
0600
0C00
1C00
1C00
0000
0000
0000
0000
0000
0000
0000
0000
0000
0000
ENDCHAR

STARTCHAR quoteright
ENCODING 8217
SWIDTH 617 0
DWIDTH 9 0
BBX 9 15 0 -3
BITMAP
0000
0E00
0E00
0C00
1800
0000
0000
0000
0000
0000
0000
0000
0000
0000
0000
ENDCHAR

STARTCHAR quotesinglbase
ENCODING 8218
SWIDTH 617 0
DWIDTH 9 0
BBX 9 15 0 -3
BITMAP
0000
0000
0000
0000
0000
0000
0000
0000
0000
0000
0E00
0E00
0C00
1800
0000
ENDCHAR

STARTCHAR quotedblleft
ENCODING 8220
SWIDTH 617 0
DWIDTH 9 0
BBX 9 15 0 -3
BITMAP
0000
1980
3300
7700
7700
0000
0000
0000
0000
0000
0000
0000
0000
0000
0000
ENDCHAR

STARTCHAR quotedblright
ENCODING 8221
SWIDTH 617 0
DWIDTH 9 0
BBX 9 15 0 -3
BITMAP
0000
3B80
3B80
3300
6600
0000
0000
0000
0000
0000
0000
0000
0000
0000
0000
ENDCHAR

STARTCHAR quotedblbase
ENCODING 8222
SWIDTH 617 0
DWIDTH 9 0
BBX 9 15 0 -3
BITMAP
0000
0000
0000
0000
0000
0000
0000
0000
0000
0000
3B80
3B80
3300
6600
0000
ENDCHAR

STARTCHAR dagger
ENCODING 8224
SWIDTH 617 0
DWIDTH 9 0
BBX 9 15 0 -3
BITMAP
0000
0C00
1E00
0C00
6D80
7F80
6D80
0C00
0C00
0C00
0C00
0C00
0800
0800
0000
ENDCHAR

STARTCHAR daggerdbl
ENCODING 8225
SWIDTH 617 0
DWIDTH 9 0
BBX 9 15 0 -3
BITMAP
0000
0C00
1E00
0C00
6D80
7F80
6D80
0C00
6D80
7F80
6D80
0C00
1E00
0C00
0000
ENDCHAR

STARTCHAR bullet
ENCODING 8226
SWIDTH 617 0
DWIDTH 9 0
BBX 9 15 0 -3
BITMAP
0000
0000
0000
0000
0000
1C00
3E00
3E00
3E00
1C00
0000
0000
0000
0000
0000
ENDCHAR

STARTCHAR ellipsis
ENCODING 8230
SWIDTH 617 0
DWIDTH 9 0
BBX 9 15 0 -3
BITMAP
0000
0000
0000
0000
0000
0000
0000
0000
0000
0000
6D80
6D80
0000
0000
0000
ENDCHAR

STARTCHAR perthousand
ENCODING 8240
SWIDTH 617 0
DWIDTH 9 0
BBX 9 15 0 -3
BITMAP
0000
3080
6980
5B00
3600
0C00
1800
3000
6000
5B00
3680
2D80
1B00
0000
0000
ENDCHAR

STARTCHAR guilsinglleft
ENCODING 8249
SWIDTH 617 0
DWIDTH 9 0
BBX 9 15 0 -3
BITMAP
0000
0000
0000
0000
0300
0600
0C00
1800
1800
0C00
0600
0000
0000
0000
0000
ENDCHAR

STARTCHAR guilsinglright
ENCODING 8250
SWIDTH 617 0
DWIDTH 9 0
BBX 9 15 0 -3
BITMAP
0000
0000
0000
0000
0000
1800
0C00
0600
0600
0C00
1800
3000
0000
0000
0000
ENDCHAR

STARTCHAR zerosuperior
ENCODING 8304
SWIDTH 617 0
DWIDTH 9 0
BBX 9 15 0 -3
BITMAP
0000
0000
1C00
3600
6E00
7600
6C00
3800
0000
0000
0000
0000
0000
0000
0000
ENDCHAR

STARTCHAR uni2071
ENCODING 8305
SWIDTH 617 0
DWIDTH 9 0
BBX 9 15 0 -3
BITMAP
0000
0000
1800
0000
1800
1800
1800
0000
0000
0000
0000
0000
0000
0000
0000
ENDCHAR

STARTCHAR foursuperior
ENCODING 8308
SWIDTH 617 0
DWIDTH 9 0
BBX 9 15 0 -3
BITMAP
0000
0000
0C00
1C00
3C00
6C00
7E00
0C00
0000
0000
0000
0000
0000
0000
0000
ENDCHAR

STARTCHAR fivesuperior
ENCODING 8309
SWIDTH 617 0
DWIDTH 9 0
BBX 9 15 0 -3
BITMAP
0000
0000
7E00
6000
7C00
0600
6600
3C00
0000
0000
0000
0000
0000
0000
0000
ENDCHAR

STARTCHAR sixsuperior
ENCODING 8310
SWIDTH 617 0
DWIDTH 9 0
BBX 9 15 0 -3
BITMAP
0000
0000
3C00
6000
7C00
6600
6600
3C00
0000
0000
0000
0000
0000
0000
0000
ENDCHAR

STARTCHAR sevensuperior
ENCODING 8311
SWIDTH 617 0
DWIDTH 9 0
BBX 9 15 0 -3
BITMAP
0000
0000
7E00
6600
0C00
1800
1800
1800
0000
0000
0000
0000
0000
0000
0000
ENDCHAR

STARTCHAR eightsuperior
ENCODING 8312
SWIDTH 617 0
DWIDTH 9 0
BBX 9 15 0 -3
BITMAP
0000
0000
3C00
6600
3C00
6600
6600
3C00
0000
0000
0000
0000
0000
0000
0000
ENDCHAR

STARTCHAR ninesuperior
ENCODING 8313
SWIDTH 617 0
DWIDTH 9 0
BBX 9 15 0 -3
BITMAP
0000
0000
3C00
6600
6600
3E00
0600
3C00
0000
0000
0000
0000
0000
0000
0000
ENDCHAR

STARTCHAR plussuperior
ENCODING 8314
SWIDTH 617 0
DWIDTH 9 0
BBX 9 15 0 -3
BITMAP
0000
0000
0000
1800
1800
7E00
1800
1800
0000
0000
0000
0000
0000
0000
0000
ENDCHAR

STARTCHAR uni207B
ENCODING 8315
SWIDTH 617 0
DWIDTH 9 0
BBX 9 15 0 -3
BITMAP
0000
0000
0000
0000
0000
7E00
0000
0000
0000
0000
0000
0000
0000
0000
0000
ENDCHAR

STARTCHAR equalsuperior
ENCODING 8316
SWIDTH 617 0
DWIDTH 9 0
BBX 9 15 0 -3
BITMAP
0000
0000
0000
0000
7E00
0000
7E00
0000
0000
0000
0000
0000
0000
0000
0000
ENDCHAR

STARTCHAR parenleftsuperior
ENCODING 8317
SWIDTH 617 0
DWIDTH 9 0
BBX 9 15 0 -3
BITMAP
0000
0000
0C00
1800
1800
1800
1800
0C00
0000
0000
0000
0000
0000
0000
0000
ENDCHAR

STARTCHAR parenrightsuperior
ENCODING 8318
SWIDTH 617 0
DWIDTH 9 0
BBX 9 15 0 -3
BITMAP
0000
0000
3000
1800
1800
1800
1800
3000
0000
0000
0000
0000
0000
0000
0000
ENDCHAR

STARTCHAR nsuperior
ENCODING 8319
SWIDTH 617 0
DWIDTH 9 0
BBX 9 15 0 -3
BITMAP
0000
0000
0000
6C00
7E00
7600
6600
6600
0000
0000
0000
0000
0000
0000
0000
ENDCHAR

STARTCHAR zeroinferior
ENCODING 8320
SWIDTH 617 0
DWIDTH 9 0
BBX 9 15 0 -3
BITMAP
0000
0000
0000
0000
0000
0000
0000
0000
1C00
3600
6E00
7600
6C00
3800
0000
ENDCHAR

STARTCHAR oneinferior
ENCODING 8321
SWIDTH 617 0
DWIDTH 9 0
BBX 9 15 0 -3
BITMAP
0000
0000
0000
0000
0000
0000
0000
0000
1800
3800
1800
1800
1800
1800
0000
ENDCHAR

STARTCHAR twoinferior
ENCODING 8322
SWIDTH 617 0
DWIDTH 9 0
BBX 9 15 0 -3
BITMAP
0000
0000
0000
0000
0000
0000
0000
0000
3C00
6600
0C00
1800
3200
7E00
0000
ENDCHAR

STARTCHAR threeinferior
ENCODING 8323
SWIDTH 617 0
DWIDTH 9 0
BBX 9 15 0 -3
BITMAP
0000
0000
0000
0000
0000
0000
0000
0000
7E00
0600
1C00
0600
6600
3C00
0000
ENDCHAR

STARTCHAR fourinferior
ENCODING 8324
SWIDTH 617 0
DWIDTH 9 0
BBX 9 15 0 -3
BITMAP
0000
0000
0000
0000
0000
0000
0000
0000
0C00
1C00
3C00
6C00
7E00
0C00
0000
ENDCHAR

STARTCHAR fiveinferior
ENCODING 8325
SWIDTH 617 0
DWIDTH 9 0
BBX 9 15 0 -3
BITMAP
0000
0000
0000
0000
0000
0000
0000
0000
7E00
6000
7C00
0600
6600
3C00
0000
ENDCHAR

STARTCHAR sixinferior
ENCODING 8326
SWIDTH 617 0
DWIDTH 9 0
BBX 9 15 0 -3
BITMAP
0000
0000
0000
0000
0000
0000
0000
0000
3C00
6000
7C00
6600
6600
3C00
0000
ENDCHAR

STARTCHAR seveninferior
ENCODING 8327
SWIDTH 617 0
DWIDTH 9 0
BBX 9 15 0 -3
BITMAP
0000
0000
0000
0000
0000
0000
0000
0000
7E00
6600
0C00
1800
1800
1800
0000
ENDCHAR

STARTCHAR eightinferior
ENCODING 8328
SWIDTH 617 0
DWIDTH 9 0
BBX 9 15 0 -3
BITMAP
0000
0000
0000
0000
0000
0000
0000
0000
3C00
6600
3C00
6600
6600
3C00
0000
ENDCHAR

STARTCHAR nineinferior
ENCODING 8329
SWIDTH 617 0
DWIDTH 9 0
BBX 9 15 0 -3
BITMAP
0000
0000
0000
0000
0000
0000
0000
0000
3C00
6600
6600
3E00
0600
3C00
0000
ENDCHAR

STARTCHAR uni208A
ENCODING 8330
SWIDTH 617 0
DWIDTH 9 0
BBX 9 15 0 -3
BITMAP
0000
0000
0000
0000
0000
0000
0000
0000
0000
1800
1800
7E00
1800
1800
0000
ENDCHAR

STARTCHAR uni208B
ENCODING 8331
SWIDTH 617 0
DWIDTH 9 0
BBX 9 15 0 -3
BITMAP
0000
0000
0000
0000
0000
0000
0000
0000
0000
0000
0000
7E00
0000
0000
0000
ENDCHAR

STARTCHAR uni208C
ENCODING 8332
SWIDTH 617 0
DWIDTH 9 0
BBX 9 15 0 -3
BITMAP
0000
0000
0000
0000
0000
0000
0000
0000
0000
0000
7E00
0000
7E00
0000
0000
ENDCHAR

STARTCHAR parenleftinferior
ENCODING 8333
SWIDTH 617 0
DWIDTH 9 0
BBX 9 15 0 -3
BITMAP
0000
0000
0000
0000
0000
0000
0000
0000
0C00
1800
1800
1800
1800
0C00
0000
ENDCHAR

STARTCHAR parenrightinferior
ENCODING 8334
SWIDTH 617 0
DWIDTH 9 0
BBX 9 15 0 -3
BITMAP
0000
0000
0000
0000
0000
0000
0000
0000
3000
1800
1800
1800
1800
3000
0000
ENDCHAR

STARTCHAR uni2090
ENCODING 8336
SWIDTH 617 0
DWIDTH 9 0
BBX 9 15 0 -3
BITMAP
0000
0000
0000
0000
0000
0000
0000
0000
0000
3C00
0600
3E00
6600
3E00
0000
ENDCHAR

STARTCHAR uni2091
ENCODING 8337
SWIDTH 617 0
DWIDTH 9 0
BBX 9 15 0 -3
BITMAP
0000
0000
0000
0000
0000
0000
0000
0000
0000
3C00
6600
7C00
6000
3C00
0000
ENDCHAR

STARTCHAR uni2092
ENCODING 8338
SWIDTH 617 0
DWIDTH 9 0
BBX 9 15 0 -3
BITMAP
0000
0000
0000
0000
0000
0000
0000
0000
0000
3C00
6600
6600
6600
3C00
0000
ENDCHAR

STARTCHAR uni2093
ENCODING 8339
SWIDTH 617 0
DWIDTH 9 0
BBX 9 15 0 -3
BITMAP
0000
0000
0000
0000
0000
0000
0000
0000
0000
6600
3C00
1800
3C00
6600
0000
ENDCHAR

STARTCHAR uni2094
ENCODING 8340
SWIDTH 617 0
DWIDTH 9 0
BBX 9 15 0 -3
BITMAP
0000
0000
0000
0000
0000
0000
0000
0000
0000
3C00
0600
7E00
6600
3C00
0000
ENDCHAR

STARTCHAR uni2095
ENCODING 8341
SWIDTH 617 0
DWIDTH 9 0
BBX 9 15 0 -3
BITMAP
0000
0000
0000
0000
0000
0000
0000
6000
6000
6C00
7E00
7600
6600
6600
0000
ENDCHAR

STARTCHAR uni2096
ENCODING 8342
SWIDTH 617 0
DWIDTH 9 0
BBX 9 15 0 -3
BITMAP
0000
0000
0000
0000
0000
0000
0000
6000
6000
6600
6C00
7800
7C00
6600
0000
ENDCHAR

STARTCHAR uni2097
ENCODING 8343
SWIDTH 617 0
DWIDTH 9 0
BBX 9 15 0 -3
BITMAP
0000
0000
0000
0000
0000
0000
0000
3800
1800
1800
1800
1800
1800
1800
0000
ENDCHAR

STARTCHAR uni2098
ENCODING 8344
SWIDTH 617 0
DWIDTH 9 0
BBX 9 15 0 -3
BITMAP
0000
0000
0000
0000
0000
0000
0000
0000
0000
7300
7F80
6D80
6D80
6180
0000
ENDCHAR

STARTCHAR uni2099
ENCODING 8345
SWIDTH 617 0
DWIDTH 9 0
BBX 9 15 0 -3
BITMAP
0000
0000
0000
0000
0000
0000
0000
0000
0000
6C00
7E00
7600
6600
6600
0000
ENDCHAR

STARTCHAR uni209A
ENCODING 8346
SWIDTH 617 0
DWIDTH 9 0
BBX 9 15 0 -3
BITMAP
0000
0000
0000
0000
0000
0000
0000
0000
0000
6C00
7E00
7600
6E00
7C00
6000
ENDCHAR

STARTCHAR uni209B
ENCODING 8347
SWIDTH 617 0
DWIDTH 9 0
BBX 9 15 0 -3
BITMAP
0000
0000
0000
0000
0000
0000
0000
0000
0000
3C00
6000
3C00
0600
3C00
0000
ENDCHAR

STARTCHAR uni209C
ENCODING 8348
SWIDTH 617 0
DWIDTH 9 0
BBX 9 15 0 -3
BITMAP
0000
0000
0000
0000
0000
0000
0000
1000
3000
7C00
3000
3000
3C00
1800
0000
ENDCHAR

STARTCHAR peseta
ENCODING 8359
SWIDTH 617 0
DWIDTH 9 0
BBX 9 15 0 -3
BITMAP
0000
0000
3800
6C00
6C00
6C00
7D80
6F00
6F00
6D80
6D80
6700
0000
0000
0000
ENDCHAR

STARTCHAR Euro
ENCODING 8364
SWIDTH 617 0
DWIDTH 9 0
BBX 9 15 0 -3
BITMAP
0000
0000
0F00
1980
3000
7F00
3000
7F00
3000
3000
1980
0F00
0000
0000
0000
ENDCHAR

STARTCHAR trademark
ENCODING 8482
SWIDTH 617 0
DWIDTH 9 0
BBX 9 15 0 -3
BITMAP
0000
FD80
6F80
6F80
6D80
6D80
0000
0000
0000
0000
0000
0000
0000
0000
0000
ENDCHAR

STARTCHAR uni2190
ENCODING 8592
SWIDTH 617 0
DWIDTH 9 0
BBX 9 15 0 -3
BITMAP
0000
0000
0000
0000
0000
1800
3000
7F80
3000
1800
0000
0000
0000
0000
0000
ENDCHAR

STARTCHAR uni2192
ENCODING 8594
SWIDTH 617 0
DWIDTH 9 0
BBX 9 15 0 -3
BITMAP
0000
0000
0000
0000
0000
0600
0300
7F80
0300
0600
0000
0000
0000
0000
0000
ENDCHAR

STARTCHAR uni220e
ENCODING 8718
SWIDTH 617 0
DWIDTH 9 0
BBX 9 15 0 -3
BITMAP
0000
0000
3F00
3300
3300
3300
3300
3300
3300
3300
3300
3F00
0000
0000
0000
ENDCHAR

STARTCHAR uni2213
ENCODING 8723
SWIDTH 617 0
DWIDTH 9 0
BBX 9 15 0 -3
BITMAP
0000
0000
0000
3F00
0000
0000
0C00
0C00
3F00
0C00
0C00
0000
0000
0000
0000
ENDCHAR

STARTCHAR bulletoperator
ENCODING 8729
SWIDTH 617 0
DWIDTH 9 0
BBX 9 15 0 -3
BITMAP
0000
0000
0000
0000
0000
0000
0C00
1E00
1E00
0C00
0000
0000
0000
0000
0000
ENDCHAR

STARTCHAR radical
ENCODING 8730
SWIDTH 617 0
DWIDTH 9 0
BBX 9 15 0 -3
BITMAP
0000
0000
0180
0180
0180
0300
0300
0300
3600
1E00
0E00
0600
0000
0000
0000
ENDCHAR

STARTCHAR infinity
ENCODING 8734
SWIDTH 617 0
DWIDTH 9 0
BBX 9 15 0 -3
BITMAP
0000
0000
0000
0000
0000
0000
3700
6D80
6D80
6D80
3B00
0000
0000
0000
0000
ENDCHAR

STARTCHAR intersection
ENCODING 8745
SWIDTH 617 0
DWIDTH 9 0
BBX 9 15 0 -3
BITMAP
0000
0000
0000
0000
0000
0000
1E00
3300
3300
3300
3300
0000
0000
0000
0000
ENDCHAR

STARTCHAR union
ENCODING 8746
SWIDTH 617 0
DWIDTH 9 0
BBX 9 15 0 -3
BITMAP
0000
0000
0000
0000
0000
0000
3300
3300
3300
3300
1E00
0000
0000
0000
0000
ENDCHAR

STARTCHAR approxequal
ENCODING 8776
SWIDTH 617 0
DWIDTH 9 0
BBX 9 15 0 -3
BITMAP
0000
0000
0000
0000
0000
0000
3B00
6E00
0000
3B00
6E00
0000
0000
0000
0000
ENDCHAR

STARTCHAR notequal
ENCODING 8800
SWIDTH 617 0
DWIDTH 9 0
BBX 9 15 0 -3
BITMAP
0000
0000
0000
0300
0600
7F80
0C00
0C00
7F80
1800
3000
0000
0000
0000
0000
ENDCHAR

STARTCHAR uni2261
ENCODING 8801
SWIDTH 617 0
DWIDTH 9 0
BBX 9 15 0 -3
BITMAP
0000
0000
0000
0000
0000
7F80
0000
7F80
0000
7F80
0000
0000
0000
0000
0000
ENDCHAR

STARTCHAR lessequal
ENCODING 8804
SWIDTH 617 0
DWIDTH 9 0
BBX 9 15 0 -3
BITMAP
0000
0000
0000
0600
0c00
1800
3000
1800
0c00
0600
0000
3f00
0000
0000
0000
ENDCHAR

STARTCHAR greaterequal
ENCODING 8805
SWIDTH 617 0
DWIDTH 9 0
BBX 9 15 0 -3
BITMAP
0000
0000
0000
1800
0c00
0600
0300
0600
0c00
1800
0000
3f00
0000
0000
0000
ENDCHAR

STARTCHAR uni2308
ENCODING 8968
SWIDTH 617 0
DWIDTH 9 0
BBX 9 15 0 -3
BITMAP
0000
1F00
1800
1800
1800
1800
1800
1800
1800
1800
1800
1800
1800
0000
0000
ENDCHAR

STARTCHAR uni2309
ENCODING 8969
SWIDTH 617 0
DWIDTH 9 0
BBX 9 15 0 -3
BITMAP
0000
3E00
0600
0600
0600
0600
0600
0600
0600
0600
0600
0600
0600
0000
0000
ENDCHAR

STARTCHAR uni230a
ENCODING 8970
SWIDTH 617 0
DWIDTH 9 0
BBX 9 15 0 -3
BITMAP
0000
1800
1800
1800
1800
1800
1800
1800
1800
1800
1800
1800
1F00
0000
0000
ENDCHAR

STARTCHAR uni230b
ENCODING 8971
SWIDTH 617 0
DWIDTH 9 0
BBX 9 15 0 -3
BITMAP
0000
0600
0600
0600
0600
0600
0600
0600
0600
0600
0600
0600
3E00
0000
0000
ENDCHAR

STARTCHAR logicalnotreversed
ENCODING 8976
SWIDTH 617 0
DWIDTH 9 0
BBX 9 15 0 -3
BITMAP
0000
0000
0000
0000
0000
0000
7F00
6000
6000
6000
0000
0000
0000
0000
0000
ENDCHAR

STARTCHAR integraltop
ENCODING 8992
SWIDTH 617 0
DWIDTH 9 0
BBX 9 15 0 -3
BITMAP
0000
0000
0700
0D80
0D80
0C00
0C00
0C00
0C00
0C00
0C00
0C00
0C00
0C00
0C00
ENDCHAR

STARTCHAR integralbottom
ENCODING 8993
SWIDTH 617 0
DWIDTH 9 0
BBX 9 15 0 -3
BITMAP
0C00
0C00
0C00
0C00
0C00
0C00
0C00
0C00
0C00
6C00
6C00
3800
0000
0000
0000
ENDCHAR

STARTCHAR uni23BA
ENCODING 9146
SWIDTH 617 0
DWIDTH 9 0
BBX 9 15 0 -3
BITMAP
0000
0000
ff80
0000
0000
0000
0000
0000
0000
0000
0000
0000
0000
0000
0000
ENDCHAR

STARTCHAR uni23BB
ENCODING 9147
SWIDTH 617 0
DWIDTH 9 0
BBX 9 15 0 -3
BITMAP
0000
0000
0000
0000
0000
ff80
0000
0000
0000
0000
0000
0000
0000
0000
0000
ENDCHAR

STARTCHAR uni23BC
ENCODING 9148
SWIDTH 617 0
DWIDTH 9 0
BBX 9 15 0 -3
BITMAP
0000
0000
0000
0000
0000
0000
0000
0000
0000
0000
0000
ff80
0000
0000
0000
ENDCHAR

STARTCHAR uni23BD
ENCODING 9149
SWIDTH 617 0
DWIDTH 9 0
BBX 9 15 0 -3
BITMAP
0000
0000
0000
0000
0000
0000
0000
0000
0000
0000
0000
0000
0000
0000
ff80
ENDCHAR

STARTCHAR uni2409
ENCODING 9225
SWIDTH 617 0
DWIDTH 9 0
BBX 9 15 0 -3
BITMAP
0000
0000
6c00
6c00
7c00
6c00
6c00
0000
0780
0300
0300
0300
0000
0000
0000
ENDCHAR

STARTCHAR uni240A
ENCODING 9226
SWIDTH 617 0
DWIDTH 9 0
BBX 9 15 0 -3
BITMAP
0000
0000
6000
6000
6000
7800
0000
0f80
0c00
0f00
0c00
0c00
0000
0000
0000
ENDCHAR

STARTCHAR uni240B
ENCODING 9227
SWIDTH 617 0
DWIDTH 9 0
BBX 9 15 0 -3
BITMAP
0000
0000
6c00
6c00
3800
3800
1000
0000
1f80
0600
0600
0600
0000
0000
0000
ENDCHAR

STARTCHAR uni240C
ENCODING 9228
SWIDTH 617 0
DWIDTH 9 0
BBX 9 15 0 -3
BITMAP
0000
0000
7c00
6000
7800
6000
6000
0f80
0c00
0f00
0c00
0c00
0000
0000
0000
ENDCHAR

STARTCHAR uni240D
ENCODING 9229
SWIDTH 617 0
DWIDTH 9 0
BBX 9 15 0 -3
BITMAP
0000
0000
3c00
6000
6000
3c00
0000
0f00
0d80
0f00
0d80
0d80
0000
0000
0000
ENDCHAR

STARTCHAR uni2424
ENCODING 9252
SWIDTH 617 0
DWIDTH 9 0
BBX 9 15 0 -3
BITMAP
0000
0000
6600
7600
6e00
6600
6600
0000
0c00
0c00
0c00
0f80
0000
0000
0000
ENDCHAR

STARTCHAR SF100000
ENCODING 9472
SWIDTH 617 0
DWIDTH 9 0
BBX 9 15 0 -3
BITMAP
0000
0000
0000
0000
0000
0000
0000
0000
ff80
0000
0000
0000
0000
0000
0000
ENDCHAR

STARTCHAR uni2501
ENCODING 9473
SWIDTH 617 0
DWIDTH 9 0
BBX 9 15 0 -3
BITMAP
0000
0000
0000
0000
0000
0000
0000
FF80
FF80
FF80
0000
0000
0000
0000
0000
ENDCHAR

STARTCHAR SF110000
ENCODING 9474
SWIDTH 617 0
DWIDTH 9 0
BBX 9 15 0 -3
BITMAP
0c00
0c00
0c00
0c00
0c00
0c00
0c00
0c00
0c00
0c00
0c00
0c00
0c00
0c00
0c00
ENDCHAR

STARTCHAR uni2503
ENCODING 9475
SWIDTH 617 0
DWIDTH 9 0
BBX 9 15 0 -3
BITMAP
1E00
1E00
1E00
1E00
1E00
1E00
1E00
1E00
1E00
1E00
1E00
1E00
1E00
1E00
1E00
ENDCHAR

STARTCHAR uni2504
ENCODING 9476
SWIDTH 617 0
DWIDTH 9 0
BBX 9 15 0 -3
BITMAP
0000
0000
0000
0000
0000
0000
0000
0000
6D80
0000
0000
0000
0000
0000
0000
ENDCHAR

STARTCHAR uni2505
ENCODING 9477
SWIDTH 617 0
DWIDTH 9 0
BBX 9 15 0 -3
BITMAP
0000
0000
0000
0000
0000
0000
0000
6D80
6D80
6D80
0000
0000
0000
0000
0000
ENDCHAR

STARTCHAR uni2506
ENCODING 9478
SWIDTH 617 0
DWIDTH 9 0
BBX 9 15 0 -3
BITMAP
0C00
0C00
0C00
0C00
0000
0C00
0C00
0C00
0C00
0000
0C00
0C00
0C00
0C00
0000
ENDCHAR

STARTCHAR uni2507
ENCODING 9479
SWIDTH 617 0
DWIDTH 9 0
BBX 9 15 0 -3
BITMAP
1E00
1E00
1E00
1E00
0000
1E00
1E00
1E00
1E00
0000
1E00
1E00
1E00
1E00
0000
ENDCHAR

STARTCHAR uni2508
ENCODING 9480
SWIDTH 617 0
DWIDTH 9 0
BBX 9 15 0 -3
BITMAP
0000
0000
0000
0000
0000
0000
0000
0000
5680
0000
0000
0000
0000
0000
0000
ENDCHAR

STARTCHAR uni2509
ENCODING 9481
SWIDTH 617 0
DWIDTH 9 0
BBX 9 15 0 -3
BITMAP
0000
0000
0000
0000
0000
0000
0000
5680
5680
5680
0000
0000
0000
0000
0000
ENDCHAR

STARTCHAR uni250A
ENCODING 9482
SWIDTH 617 0
DWIDTH 9 0
BBX 9 15 0 -3
BITMAP
0C00
0C00
0C00
0000
0C00
0C00
0C00
0000
0C00
0C00
0C00
0000
0C00
0C00
0000
ENDCHAR

STARTCHAR uni250B
ENCODING 9483
SWIDTH 617 0
DWIDTH 9 0
BBX 9 15 0 -3
BITMAP
1E00
1E00
1E00
0000
1E00
1E00
1E00
0000
1E00
1E00
1E00
0000
1E00
1E00
0000
ENDCHAR

STARTCHAR SF010000
ENCODING 9484
SWIDTH 617 0
DWIDTH 9 0
BBX 9 15 0 -3
BITMAP
0000
0000
0000
0000
0000
0000
0000
0000
0f80
0c00
0c00
0c00
0c00
0c00
0c00
ENDCHAR

STARTCHAR uni250D
ENCODING 9485
SWIDTH 617 0
DWIDTH 9 0
BBX 9 15 0 -3
BITMAP
0000
0000
0000
0000
0000
0000
0000
0F80
0F80
0F80
0C00
0C00
0C00
0C00
0C00
ENDCHAR

STARTCHAR uni250E
ENCODING 9486
SWIDTH 617 0
DWIDTH 9 0
BBX 9 15 0 -3
BITMAP
0000
0000
0000
0000
0000
0000
0000
0000
1F80
1E00
1E00
1E00
1E00
1E00
1E00
ENDCHAR

STARTCHAR uni250F
ENCODING 9487
SWIDTH 617 0
DWIDTH 9 0
BBX 9 15 0 -3
BITMAP
0000
0000
0000
0000
0000
0000
0000
1F80
1F80
1F80
1E00
1E00
1E00
1E00
1E00
ENDCHAR

STARTCHAR SF030000
ENCODING 9488
SWIDTH 617 0
DWIDTH 9 0
BBX 9 15 0 -3
BITMAP
0000
0000
0000
0000
0000
0000
0000
0000
fc00
0c00
0c00
0c00
0c00
0c00
0c00
ENDCHAR

STARTCHAR uni2511
ENCODING 9489
SWIDTH 617 0
DWIDTH 9 0
BBX 9 15 0 -3
BITMAP
0000
0000
0000
0000
0000
0000
0000
FC00
FC00
FC00
0C00
0C00
0C00
0C00
0C00
ENDCHAR

STARTCHAR uni2512
ENCODING 9490
SWIDTH 617 0
DWIDTH 9 0
BBX 9 15 0 -3
BITMAP
0000
0000
0000
0000
0000
0000
0000
0000
FE00
1E00
1E00
1E00
1E00
1E00
1E00
ENDCHAR

STARTCHAR uni2513
ENCODING 9491
SWIDTH 617 0
DWIDTH 9 0
BBX 9 15 0 -3
BITMAP
0000
0000
0000
0000
0000
0000
0000
FE00
FE00
FE00
1E00
1E00
1E00
1E00
1E00
ENDCHAR

STARTCHAR SF020000
ENCODING 9492
SWIDTH 617 0
DWIDTH 9 0
BBX 9 15 0 -3
BITMAP
0c00
0c00
0c00
0c00
0c00
0c00
0c00
0c00
0f80
0000
0000
0000
0000
0000
0000
ENDCHAR

STARTCHAR uni2515
ENCODING 9493
SWIDTH 617 0
DWIDTH 9 0
BBX 9 15 0 -3
BITMAP
0C00
0C00
0C00
0C00
0C00
0C00
0C00
0F80
0F80
0F80
0000
0000
0000
0000
0000
ENDCHAR

STARTCHAR uni2516
ENCODING 9494
SWIDTH 617 0
DWIDTH 9 0
BBX 9 15 0 -3
BITMAP
1E00
1E00
1E00
1E00
1E00
1E00
1E00
1E00
1F80
0000
0000
0000
0000
0000
0000
ENDCHAR

STARTCHAR uni2517
ENCODING 9495
SWIDTH 617 0
DWIDTH 9 0
BBX 9 15 0 -3
BITMAP
1E00
1E00
1E00
1E00
1E00
1E00
1E00
1F80
1F80
1F80
0000
0000
0000
0000
0000
ENDCHAR

STARTCHAR SF040000
ENCODING 9496
SWIDTH 617 0
DWIDTH 9 0
BBX 9 15 0 -3
BITMAP
0c00
0c00
0c00
0c00
0c00
0c00
0c00
0c00
fc00
0000
0000
0000
0000
0000
0000
ENDCHAR

STARTCHAR uni2519
ENCODING 9497
SWIDTH 617 0
DWIDTH 9 0
BBX 9 15 0 -3
BITMAP
0C00
0C00
0C00
0C00
0C00
0C00
0C00
FC00
FC00
FC00
0000
0000
0000
0000
0000
ENDCHAR

STARTCHAR uni251A
ENCODING 9498
SWIDTH 617 0
DWIDTH 9 0
BBX 9 15 0 -3
BITMAP
1E00
1E00
1E00
1E00
1E00
1E00
1E00
1E00
FE00
0000
0000
0000
0000
0000
0000
ENDCHAR

STARTCHAR uni251B
ENCODING 9499
SWIDTH 617 0
DWIDTH 9 0
BBX 9 15 0 -3
BITMAP
1E00
1E00
1E00
1E00
1E00
1E00
1E00
FE00
FE00
FE00
0000
0000
0000
0000
0000
ENDCHAR

STARTCHAR SF080000
ENCODING 9500
SWIDTH 617 0
DWIDTH 9 0
BBX 9 15 0 -3
BITMAP
0c00
0c00
0c00
0c00
0c00
0c00
0c00
0c00
0f80
0c00
0c00
0c00
0c00
0c00
0c00
ENDCHAR

STARTCHAR uni251D
ENCODING 9501
SWIDTH 617 0
DWIDTH 9 0
BBX 9 15 0 -3
BITMAP
0C00
0C00
0C00
0C00
0C00
0C00
0C00
0F80
0F80
0F80
0C00
0C00
0C00
0C00
0C00
ENDCHAR

STARTCHAR uni251E
ENCODING 9502
SWIDTH 617 0
DWIDTH 9 0
BBX 9 15 0 -3
BITMAP
1E00
1E00
1E00
1E00
1E00
1E00
1E00
1E00
1F80
0C00
0C00
0C00
0C00
0C00
0C00
ENDCHAR

STARTCHAR uni251F
ENCODING 9503
SWIDTH 617 0
DWIDTH 9 0
BBX 9 15 0 -3
BITMAP
0C00
0C00
0C00
0C00
0C00
0C00
0C00
0C00
1F80
1E00
1E00
1E00
1E00
1E00
1E00
ENDCHAR

STARTCHAR uni2520
ENCODING 9504
SWIDTH 617 0
DWIDTH 9 0
BBX 9 15 0 -3
BITMAP
1E00
1E00
1E00
1E00
1E00
1E00
1E00
1E00
1F80
1E00
1E00
1E00
1E00
1E00
1E00
ENDCHAR

STARTCHAR uni2521
ENCODING 9505
SWIDTH 617 0
DWIDTH 9 0
BBX 9 15 0 -3
BITMAP
1E00
1E00
1E00
1E00
1E00
1E00
1E00
1F80
1F80
1F80
0C00
0C00
0C00
0C00
0C00
ENDCHAR

STARTCHAR uni2522
ENCODING 9506
SWIDTH 617 0
DWIDTH 9 0
BBX 9 15 0 -3
BITMAP
0C00
0C00
0C00
0C00
0C00
0C00
0C00
1F80
1F80
1F80
1E00
1E00
1E00
1E00
1E00
ENDCHAR

STARTCHAR uni2523
ENCODING 9507
SWIDTH 617 0
DWIDTH 9 0
BBX 9 15 0 -3
BITMAP
1E00
1E00
1E00
1E00
1E00
1E00
1E00
1F80
1F80
1F80
1E00
1E00
1E00
1E00
1E00
ENDCHAR

STARTCHAR SF090000
ENCODING 9508
SWIDTH 617 0
DWIDTH 9 0
BBX 9 15 0 -3
BITMAP
0c00
0c00
0c00
0c00
0c00
0c00
0c00
0c00
fc00
0c00
0c00
0c00
0c00
0c00
0c00
ENDCHAR

STARTCHAR uni2525
ENCODING 9509
SWIDTH 617 0
DWIDTH 9 0
BBX 9 15 0 -3
BITMAP
0C00
0C00
0C00
0C00
0C00
0C00
0C00
FC00
FC00
FC00
0C00
0C00
0C00
0C00
0C00
ENDCHAR

STARTCHAR uni2526
ENCODING 9510
SWIDTH 617 0
DWIDTH 9 0
BBX 9 15 0 -3
BITMAP
1E00
1E00
1E00
1E00
1E00
1E00
1E00
1E00
FE00
0C00
0C00
0C00
0C00
0C00
0C00
ENDCHAR

STARTCHAR uni2527
ENCODING 9511
SWIDTH 617 0
DWIDTH 9 0
BBX 9 15 0 -3
BITMAP
0C00
0C00
0C00
0C00
0C00
0C00
0C00
0C00
FE00
1E00
1E00
1E00
1E00
1E00
1E00
ENDCHAR

STARTCHAR uni2528
ENCODING 9512
SWIDTH 617 0
DWIDTH 9 0
BBX 9 15 0 -3
BITMAP
1E00
1E00
1E00
1E00
1E00
1E00
1E00
1E00
FE00
1E00
1E00
1E00
1E00
1E00
1E00
ENDCHAR

STARTCHAR uni2529
ENCODING 9513
SWIDTH 617 0
DWIDTH 9 0
BBX 9 15 0 -3
BITMAP
1E00
1E00
1E00
1E00
1E00
1E00
1E00
FE00
FE00
FE00
0C00
0C00
0C00
0C00
0C00
ENDCHAR

STARTCHAR uni252A
ENCODING 9514
SWIDTH 617 0
DWIDTH 9 0
BBX 9 15 0 -3
BITMAP
0C00
0C00
0C00
0C00
0C00
0C00
0C00
FE00
FE00
FE00
1E00
1E00
1E00
1E00
1E00
ENDCHAR

STARTCHAR uni252B
ENCODING 9515
SWIDTH 617 0
DWIDTH 9 0
BBX 9 15 0 -3
BITMAP
1E00
1E00
1E00
1E00
1E00
1E00
1E00
FE00
FE00
FE00
1E00
1E00
1E00
1E00
1E00
ENDCHAR

STARTCHAR SF060000
ENCODING 9516
SWIDTH 617 0
DWIDTH 9 0
BBX 9 15 0 -3
BITMAP
0000
0000
0000
0000
0000
0000
0000
0000
ff80
0c00
0c00
0c00
0c00
0c00
0c00
ENDCHAR

STARTCHAR uni252D
ENCODING 9517
SWIDTH 617 0
DWIDTH 9 0
BBX 9 15 0 -3
BITMAP
0000
0000
0000
0000
0000
0000
0000
FC00
FF80
FC00
0C00
0C00
0C00
0C00
0C00
ENDCHAR

STARTCHAR uni252E
ENCODING 9518
SWIDTH 617 0
DWIDTH 9 0
BBX 9 15 0 -3
BITMAP
0000
0000
0000
0000
0000
0000
0000
0F80
FF80
0F80
0C00
0C00
0C00
0C00
0C00
ENDCHAR

STARTCHAR uni252F
ENCODING 9519
SWIDTH 617 0
DWIDTH 9 0
BBX 9 15 0 -3
BITMAP
0000
0000
0000
0000
0000
0000
0000
FF80
FF80
FF80
0C00
0C00
0C00
0C00
0C00
ENDCHAR

STARTCHAR uni2530
ENCODING 9520
SWIDTH 617 0
DWIDTH 9 0
BBX 9 15 0 -3
BITMAP
0000
0000
0000
0000
0000
0000
0000
0000
FF80
1E00
1E00
1E00
1E00
1E00
1E00
ENDCHAR

STARTCHAR uni2531
ENCODING 9521
SWIDTH 617 0
DWIDTH 9 0
BBX 9 15 0 -3
BITMAP
0000
0000
0000
0000
0000
0000
0000
FE00
FF80
FE00
1E00
1E00
1E00
1E00
1E00
ENDCHAR

STARTCHAR uni2532
ENCODING 9522
SWIDTH 617 0
DWIDTH 9 0
BBX 9 15 0 -3
BITMAP
0000
0000
0000
0000
0000
0000
0000
1F80
FF80
1F80
1E00
1E00
1E00
1E00
1E00
ENDCHAR

STARTCHAR uni2533
ENCODING 9523
SWIDTH 617 0
DWIDTH 9 0
BBX 9 15 0 -3
BITMAP
0000
0000
0000
0000
0000
0000
0000
FF80
FF80
FF80
1E00
1E00
1E00
1E00
1E00
ENDCHAR

STARTCHAR SF070000
ENCODING 9524
SWIDTH 617 0
DWIDTH 9 0
BBX 9 15 0 -3
BITMAP
0c00
0c00
0c00
0c00
0c00
0c00
0c00
0c00
ff80
0000
0000
0000
0000
0000
0000
ENDCHAR

STARTCHAR uni2535
ENCODING 9525
SWIDTH 617 0
DWIDTH 9 0
BBX 9 15 0 -3
BITMAP
0C00
0C00
0C00
0C00
0C00
0C00
0C00
FC00
FF80
FC00
0000
0000
0000
0000
0000
ENDCHAR

STARTCHAR uni2536
ENCODING 9526
SWIDTH 617 0
DWIDTH 9 0
BBX 9 15 0 -3
BITMAP
0C00
0C00
0C00
0C00
0C00
0C00
0C00
0F80
FF80
0F80
0000
0000
0000
0000
0000
ENDCHAR

STARTCHAR uni2537
ENCODING 9527
SWIDTH 617 0
DWIDTH 9 0
BBX 9 15 0 -3
BITMAP
0C00
0C00
0C00
0C00
0C00
0C00
0C00
FF80
FF80
FF80
0000
0000
0000
0000
0000
ENDCHAR

STARTCHAR uni2538
ENCODING 9528
SWIDTH 617 0
DWIDTH 9 0
BBX 9 15 0 -3
BITMAP
1E00
1E00
1E00
1E00
1E00
1E00
1E00
1E00
FF80
0000
0000
0000
0000
0000
0000
ENDCHAR

STARTCHAR uni2539
ENCODING 9529
SWIDTH 617 0
DWIDTH 9 0
BBX 9 15 0 -3
BITMAP
1E00
1E00
1E00
1E00
1E00
1E00
1E00
FE00
FF80
FE00
0000
0000
0000
0000
0000
ENDCHAR

STARTCHAR uni253A
ENCODING 9530
SWIDTH 617 0
DWIDTH 9 0
BBX 9 15 0 -3
BITMAP
1E00
1E00
1E00
1E00
1E00
1E00
1E00
1F80
FF80
1F80
0000
0000
0000
0000
0000
ENDCHAR

STARTCHAR uni253B
ENCODING 9531
SWIDTH 617 0
DWIDTH 9 0
BBX 9 15 0 -3
BITMAP
1E00
1E00
1E00
1E00
1E00
1E00
1E00
FF80
FF80
FF80
0000
0000
0000
0000
0000
ENDCHAR

STARTCHAR SF050000
ENCODING 9532
SWIDTH 617 0
DWIDTH 9 0
BBX 9 15 0 -3
BITMAP
0c00
0c00
0c00
0c00
0c00
0c00
0c00
0c00
ff80
0c00
0c00
0c00
0c00
0c00
0c00
ENDCHAR

STARTCHAR uni253D
ENCODING 9533
SWIDTH 617 0
DWIDTH 9 0
BBX 9 15 0 -3
BITMAP
0C00
0C00
0C00
0C00
0C00
0C00
0C00
FC00
FF80
FC00
0C00
0C00
0C00
0C00
0C00
ENDCHAR

STARTCHAR uni253E
ENCODING 9534
SWIDTH 617 0
DWIDTH 9 0
BBX 9 15 0 -3
BITMAP
0C00
0C00
0C00
0C00
0C00
0C00
0C00
0F80
FF80
0F80
0C00
0C00
0C00
0C00
0C00
ENDCHAR

STARTCHAR uni253F
ENCODING 9535
SWIDTH 617 0
DWIDTH 9 0
BBX 9 15 0 -3
BITMAP
0C00
0C00
0C00
0C00
0C00
0C00
0C00
FF80
FF80
FF80
0C00
0C00
0C00
0C00
0C00
ENDCHAR

STARTCHAR uni2540
ENCODING 9536
SWIDTH 617 0
DWIDTH 9 0
BBX 9 15 0 -3
BITMAP
1E00
1E00
1E00
1E00
1E00
1E00
1E00
1E00
FF80
0C00
0C00
0C00
0C00
0C00
0C00
ENDCHAR

STARTCHAR uni2541
ENCODING 9537
SWIDTH 617 0
DWIDTH 9 0
BBX 9 15 0 -3
BITMAP
0C00
0C00
0C00
0C00
0C00
0C00
0C00
0C00
FF80
1E00
1E00
1E00
1E00
1E00
1E00
ENDCHAR

STARTCHAR uni2542
ENCODING 9538
SWIDTH 617 0
DWIDTH 9 0
BBX 9 15 0 -3
BITMAP
1E00
1E00
1E00
1E00
1E00
1E00
1E00
1E00
FF80
1E00
1E00
1E00
1E00
1E00
1E00
ENDCHAR

STARTCHAR uni2543
ENCODING 9539
SWIDTH 617 0
DWIDTH 9 0
BBX 9 15 0 -3
BITMAP
1E00
1E00
1E00
1E00
1E00
1E00
1E00
FE00
FF80
FE00
0C00
0C00
0C00
0C00
0C00
ENDCHAR

STARTCHAR uni2544
ENCODING 9540
SWIDTH 617 0
DWIDTH 9 0
BBX 9 15 0 -3
BITMAP
1E00
1E00
1E00
1E00
1E00
1E00
1E00
1F80
FF80
1F80
0C00
0C00
0C00
0C00
0C00
ENDCHAR

STARTCHAR uni2545
ENCODING 9541
SWIDTH 617 0
DWIDTH 9 0
BBX 9 15 0 -3
BITMAP
0C00
0C00
0C00
0C00
0C00
0C00
0C00
FE00
FF80
FE00
1E00
1E00
1E00
1E00
1E00
ENDCHAR

STARTCHAR uni2546
ENCODING 9542
SWIDTH 617 0
DWIDTH 9 0
BBX 9 15 0 -3
BITMAP
0C00
0C00
0C00
0C00
0C00
0C00
0C00
1F80
FF80
1F80
1E00
1E00
1E00
1E00
1E00
ENDCHAR

STARTCHAR uni2547
ENCODING 9543
SWIDTH 617 0
DWIDTH 9 0
BBX 9 15 0 -3
BITMAP
1E00
1E00
1E00
1E00
1E00
1E00
1E00
FF80
FF80
FF80
0C00
0C00
0C00
0C00
0C00
ENDCHAR

STARTCHAR uni2548
ENCODING 9544
SWIDTH 617 0
DWIDTH 9 0
BBX 9 15 0 -3
BITMAP
0C00
0C00
0C00
0C00
0C00
0C00
0C00
FF80
FF80
FF80
1E00
1E00
1E00
1E00
1E00
ENDCHAR

STARTCHAR uni2549
ENCODING 9545
SWIDTH 617 0
DWIDTH 9 0
BBX 9 15 0 -3
BITMAP
1E00
1E00
1E00
1E00
1E00
1E00
1E00
FE00
FF80
FE00
1E00
1E00
1E00
1E00
1E00
ENDCHAR

STARTCHAR uni254A
ENCODING 9546
SWIDTH 617 0
DWIDTH 9 0
BBX 9 15 0 -3
BITMAP
1E00
1E00
1E00
1E00
1E00
1E00
1E00
1F80
FF80
1F80
1E00
1E00
1E00
1E00
1E00
ENDCHAR

STARTCHAR uni254B
ENCODING 9547
SWIDTH 617 0
DWIDTH 9 0
BBX 9 15 0 -3
BITMAP
1E00
1E00
1E00
1E00
1E00
1E00
1E00
FF80
FF80
FF80
1E00
1E00
1E00
1E00
1E00
ENDCHAR

STARTCHAR uni254C
ENCODING 9548
SWIDTH 617 0
DWIDTH 9 0
BBX 9 15 0 -3
BITMAP
0000
0000
0000
0000
0000
0000
0000
0000
7B80
0000
0000
0000
0000
0000
0000
ENDCHAR

STARTCHAR uni254D
ENCODING 9549
SWIDTH 617 0
DWIDTH 9 0
BBX 9 15 0 -3
BITMAP
0000
0000
0000
0000
0000
0000
0000
7B80
7B80
7B80
0000
0000
0000
0000
0000
ENDCHAR

STARTCHAR uni254E
ENCODING 9550
SWIDTH 617 0
DWIDTH 9 0
BBX 9 15 0 -3
BITMAP
0C00
0C00
0C00
0C00
0C00
0C00
0C00
0000
0C00
0C00
0C00
0C00
0C00
0C00
0000
ENDCHAR

STARTCHAR uni254F
ENCODING 9551
SWIDTH 617 0
DWIDTH 9 0
BBX 9 15 0 -3
BITMAP
1E00
1E00
1E00
1E00
1E00
1E00
1E00
0000
1E00
1E00
1E00
1E00
1E00
1E00
0000
ENDCHAR

STARTCHAR SF430000
ENCODING 9552
SWIDTH 617 0
DWIDTH 9 0
BBX 9 15 0 -3
BITMAP
0000
0000
0000
0000
0000
0000
0000
FF80
0000
FF80
0000
0000
0000
0000
0000
ENDCHAR

STARTCHAR SF240000
ENCODING 9553
SWIDTH 617 0
DWIDTH 9 0
BBX 9 15 0 -3
BITMAP
3600
3600
3600
3600
3600
3600
3600
3600
3600
3600
3600
3600
3600
3600
3600
ENDCHAR

STARTCHAR SF510000
ENCODING 9554
SWIDTH 617 0
DWIDTH 9 0
BBX 9 15 0 -3
BITMAP
0000
0000
0000
0000
0000
0000
0000
0F80
0C00
0F80
0C00
0C00
0C00
0C00
0C00
ENDCHAR

STARTCHAR SF520000
ENCODING 9555
SWIDTH 617 0
DWIDTH 9 0
BBX 9 15 0 -3
BITMAP
0000
0000
0000
0000
0000
0000
0000
0000
3F80
3600
3600
3600
3600
3600
3600
ENDCHAR

STARTCHAR SF390000
ENCODING 9556
SWIDTH 617 0
DWIDTH 9 0
BBX 9 15 0 -3
BITMAP
0000
0000
0000
0000
0000
0000
0000
3F80
3000
3780
3600
3600
3600
3600
3600
ENDCHAR

STARTCHAR SF220000
ENCODING 9557
SWIDTH 617 0
DWIDTH 9 0
BBX 9 15 0 -3
BITMAP
0000
0000
0000
0000
0000
0000
0000
FC00
0400
FC00
0C00
0C00
0C00
0C00
0C00
ENDCHAR

STARTCHAR SF210000
ENCODING 9558
SWIDTH 617 0
DWIDTH 9 0
BBX 9 15 0 -3
BITMAP
0000
0000
0000
0000
0000
0000
0000
0000
FE00
3600
3600
3600
3600
3600
3600
ENDCHAR

STARTCHAR SF250000
ENCODING 9559
SWIDTH 617 0
DWIDTH 9 0
BBX 9 15 0 -3
BITMAP
0000
0000
0000
0000
0000
0000
0000
FE00
0600
F600
3600
3600
3600
3600
3600
ENDCHAR

STARTCHAR SF500000
ENCODING 9560
SWIDTH 617 0
DWIDTH 9 0
BBX 9 15 0 -3
BITMAP
0C00
0C00
0C00
0C00
0C00
0C00
0C00
0F80
0C00
0F80
0000
0000
0000
0000
0000
ENDCHAR

STARTCHAR SF490000
ENCODING 9561
SWIDTH 617 0
DWIDTH 9 0
BBX 9 15 0 -3
BITMAP
3600
3600
3600
3600
3600
3600
3600
3600
3F80
0000
0000
0000
0000
0000
0000
ENDCHAR

STARTCHAR SF380000
ENCODING 9562
SWIDTH 617 0
DWIDTH 9 0
BBX 9 15 0 -3
BITMAP
3600
3600
3600
3600
3600
3600
3600
3780
3000
3F80
0000
0000
0000
0000
0000
ENDCHAR

STARTCHAR SF280000
ENCODING 9563
SWIDTH 617 0
DWIDTH 9 0
BBX 9 15 0 -3
BITMAP
0C00
0C00
0C00
0C00
0C00
0C00
0C00
FC00
0C00
FC00
0000
0000
0000
0000
0000
ENDCHAR

STARTCHAR SF270000
ENCODING 9564
SWIDTH 617 0
DWIDTH 9 0
BBX 9 15 0 -3
BITMAP
3600
3600
3600
3600
3600
3600
3600
3600
FE00
0000
0000
0000
0000
0000
0000
ENDCHAR

STARTCHAR SF260000
ENCODING 9565
SWIDTH 617 0
DWIDTH 9 0
BBX 9 15 0 -3
BITMAP
3600
3600
3600
3600
3600
3600
3600
F600
0600
FE00
0000
0000
0000
0000
0000
ENDCHAR

STARTCHAR SF360000
ENCODING 9566
SWIDTH 617 0
DWIDTH 9 0
BBX 9 15 0 -3
BITMAP
0C00
0C00
0C00
0C00
0C00
0C00
0C00
0F80
0C00
0F80
0C00
0C00
0C00
0C00
0C00
ENDCHAR

STARTCHAR SF370000
ENCODING 9567
SWIDTH 617 0
DWIDTH 9 0
BBX 9 15 0 -3
BITMAP
3600
3600
3600
3600
3600
3600
3600
3600
3780
3600
3600
3600
3600
3600
3600
ENDCHAR

STARTCHAR SF420000
ENCODING 9568
SWIDTH 617 0
DWIDTH 9 0
BBX 9 15 0 -3
BITMAP
3600
3600
3600
3600
3600
3600
3600
3780
3000
3780
3600
3600
3600
3600
3600
ENDCHAR

STARTCHAR SF190000
ENCODING 9569
SWIDTH 617 0
DWIDTH 9 0
BBX 9 15 0 -3
BITMAP
0C00
0C00
0C00
0C00
0C00
0C00
0C00
FC00
0C00
FC00
0C00
0C00
0C00
0C00
0C00
ENDCHAR

STARTCHAR SF200000
ENCODING 9570
SWIDTH 617 0
DWIDTH 9 0
BBX 9 15 0 -3
BITMAP
3600
3600
3600
3600
3600
3600
3600
3600
F600
3600
3600
3600
3600
3600
3600
ENDCHAR

STARTCHAR SF230000
ENCODING 9571
SWIDTH 617 0
DWIDTH 9 0
BBX 9 15 0 -3
BITMAP
3600
3600
3600
3600
3600
3600
3600
F600
0600
F600
3600
3600
3600
3600
3600
ENDCHAR

STARTCHAR SF470000
ENCODING 9572
SWIDTH 617 0
DWIDTH 9 0
BBX 9 15 0 -3
BITMAP
0000
0000
0000
0000
0000
0000
0000
FF80
0000
FF80
0C00
0C00
0C00
0C00
0C00
ENDCHAR

STARTCHAR SF480000
ENCODING 9573
SWIDTH 617 0
DWIDTH 9 0
BBX 9 15 0 -3
BITMAP
0000
0000
0000
0000
0000
0000
0000
0000
FF80
3600
3600
3600
3600
3600
3600
ENDCHAR

STARTCHAR SF410000
ENCODING 9574
SWIDTH 617 0
DWIDTH 9 0
BBX 9 15 0 -3
BITMAP
0000
0000
0000
0000
0000
0000
0000
FF80
0000
F780
3600
3600
3600
3600
3600
ENDCHAR

STARTCHAR SF450000
ENCODING 9575
SWIDTH 617 0
DWIDTH 9 0
BBX 9 15 0 -3
BITMAP
0C00
0C00
0C00
0C00
0C00
0C00
0C00
FF80
0000
FF80
0000
0000
0000
0000
0000
ENDCHAR

STARTCHAR SF460000
ENCODING 9576
SWIDTH 617 0
DWIDTH 9 0
BBX 9 15 0 -3
BITMAP
3600
3600
3600
3600
3600
3600
3600
3600
FF80
0000
0000
0000
0000
0000
0000
ENDCHAR

STARTCHAR SF400000
ENCODING 9577
SWIDTH 617 0
DWIDTH 9 0
BBX 9 15 0 -3
BITMAP
3600
3600
3600
3600
3600
3600
3600
F780
0000
FF80
0000
0000
0000
0000
0000
ENDCHAR

STARTCHAR SF540000
ENCODING 9578
SWIDTH 617 0
DWIDTH 9 0
BBX 9 15 0 -3
BITMAP
0C00
0C00
0C00
0C00
0C00
0C00
0C00
FF80
0C00
FF80
0C00
0C00
0C00
0C00
0C00
ENDCHAR

STARTCHAR SF530000
ENCODING 9579
SWIDTH 617 0
DWIDTH 9 0
BBX 9 15 0 -3
BITMAP
3600
3600
3600
3600
3600
3600
3600
3600
FF80
3600
3600
3600
3600
3600
3600
ENDCHAR

STARTCHAR SF440000
ENCODING 9580
SWIDTH 617 0
DWIDTH 9 0
BBX 9 15 0 -3
BITMAP
3600
3600
3600
3600
3600
3600
3600
F780
0000
F780
3600
3600
3600
3600
3600
ENDCHAR

STARTCHAR uni256D
ENCODING 9581
SWIDTH 617 0
DWIDTH 9 0
BBX 9 15 0 -3
BITMAP
0000
0000
0000
0000
0000
0000
0000
0000
0380
0600
0C00
0C00
0C00
0C00
0C00
ENDCHAR

STARTCHAR uni256E
ENCODING 9582
SWIDTH 617 0
DWIDTH 9 0
BBX 9 15 0 -3
BITMAP
0000
0000
0000
0000
0000
0000
0000
0000
F000
1800
0C00
0C00
0C00
0C00
0C00
ENDCHAR

STARTCHAR uni256F
ENCODING 9583
SWIDTH 617 0
DWIDTH 9 0
BBX 9 15 0 -3
BITMAP
0C00
0C00
0C00
0C00
0C00
0C00
0C00
1800
F000
0000
0000
0000
0000
0000
0000
ENDCHAR

STARTCHAR uni2570
ENCODING 9584
SWIDTH 617 0
DWIDTH 9 0
BBX 9 15 0 -3
BITMAP
0C00
0C00
0C00
0C00
0C00
0C00
0C00
0600
0380
0000
0000
0000
0000
0000
0000
ENDCHAR

STARTCHAR uni2571
ENCODING 9585
SWIDTH 617 0
DWIDTH 9 0
BBX 9 15 0 -3
BITMAP
0080
0100
0100
0200
0200
0400
0400
0800
1000
1000
2000
2000
4000
4000
8000
ENDCHAR

STARTCHAR uni2572
ENCODING 9586
SWIDTH 617 0
DWIDTH 9 0
BBX 9 15 0 -3
BITMAP
8000
4000
4000
2000
2000
1000
1000
0800
0400
0400
0200
0200
0100
0100
0080
ENDCHAR

STARTCHAR uni2573
ENCODING 9587
SWIDTH 617 0
DWIDTH 9 0
BBX 9 15 0 -3
BITMAP
8080
4100
4100
2200
2200
1400
1400
0800
1400
1400
2200
2200
4100
4100
8080
ENDCHAR

STARTCHAR uni2574
ENCODING 9588
SWIDTH 617 0
DWIDTH 9 0
BBX 9 15 0 -3
BITMAP
0000
0000
0000
0000
0000
0000
0000
0000
FC00
0000
0000
0000
0000
0000
0000
ENDCHAR

STARTCHAR uni2575
ENCODING 9589
SWIDTH 617 0
DWIDTH 9 0
BBX 9 15 0 -3
BITMAP
0C00
0C00
0C00
0C00
0C00
0C00
0C00
0C00
0C00
0000
0000
0000
0000
0000
0000
ENDCHAR

STARTCHAR uni2576
ENCODING 9590
SWIDTH 617 0
DWIDTH 9 0
BBX 9 15 0 -3
BITMAP
0000
0000
0000
0000
0000
0000
0000
0000
0F80
0000
0000
0000
0000
0000
0000
ENDCHAR

STARTCHAR uni2577
ENCODING 9591
SWIDTH 617 0
DWIDTH 9 0
BBX 9 15 0 -3
BITMAP
0000
0000
0000
0000
0000
0000
0000
0000
0C00
0C00
0C00
0C00
0C00
0C00
0C00
ENDCHAR

STARTCHAR uni2578
ENCODING 9592
SWIDTH 617 0
DWIDTH 9 0
BBX 9 15 0 -3
BITMAP
0000
0000
0000
0000
0000
0000
0000
FE00
FE00
FE00
0000
0000
0000
0000
0000
ENDCHAR

STARTCHAR uni2579
ENCODING 9593
SWIDTH 617 0
DWIDTH 9 0
BBX 9 15 0 -3
BITMAP
1E00
1E00
1E00
1E00
1E00
1E00
1E00
1E00
1E00
1E00
0000
0000
0000
0000
0000
ENDCHAR

STARTCHAR uni257A
ENCODING 9594
SWIDTH 617 0
DWIDTH 9 0
BBX 9 15 0 -3
BITMAP
0000
0000
0000
0000
0000
0000
0000
1F80
1F80
1F80
0000
0000
0000
0000
0000
ENDCHAR

STARTCHAR uni257B
ENCODING 9595
SWIDTH 617 0
DWIDTH 9 0
BBX 9 15 0 -3
BITMAP
0000
0000
0000
0000
0000
0000
0000
1E00
1E00
1E00
1E00
1E00
1E00
1E00
1E00
ENDCHAR

STARTCHAR uni257C
ENCODING 9596
SWIDTH 617 0
DWIDTH 9 0
BBX 9 15 0 -3
BITMAP
0000
0000
0000
0000
0000
0000
0000
1F80
FF80
1F80
0000
0000
0000
0000
0000
ENDCHAR

STARTCHAR uni257D
ENCODING 9597
SWIDTH 617 0
DWIDTH 9 0
BBX 9 15 0 -3
BITMAP
0C00
0C00
0C00
0C00
0C00
0C00
0C00
1E00
1E00
1E00
1E00
1E00
1E00
1E00
1E00
ENDCHAR

STARTCHAR uni257E
ENCODING 9598
SWIDTH 617 0
DWIDTH 9 0
BBX 9 15 0 -3
BITMAP
0000
0000
0000
0000
0000
0000
0000
FE00
FF80
FE00
0000
0000
0000
0000
0000
ENDCHAR

STARTCHAR uni257F
ENCODING 9599
SWIDTH 617 0
DWIDTH 9 0
BBX 9 15 0 -3
BITMAP
1E00
1E00
1E00
1E00
1E00
1E00
1E00
1E00
1E00
1E00
0C00
0C00
0C00
0C00
0C00
ENDCHAR

STARTCHAR upblock
ENCODING 9600
SWIDTH 617 0
DWIDTH 9 0
BBX 9 15 0 -3
BITMAP
FF80
FF80
FF80
FF80
FF80
FF80
FF80
FF80
0000
0000
0000
0000
0000
0000
0000
ENDCHAR

STARTCHAR uni2581
ENCODING 9601
SWIDTH 617 0
DWIDTH 9 0
BBX 9 15 0 -3
BITMAP
0000
0000
0000
0000
0000
0000
0000
0000
0000
0000
0000
0000
0000
FF80
FF80
ENDCHAR

STARTCHAR uni2582
ENCODING 9602
SWIDTH 617 0
DWIDTH 9 0
BBX 9 15 0 -3
BITMAP
0000
0000
0000
0000
0000
0000
0000
0000
0000
0000
0000
FF80
FF80
FF80
FF80
ENDCHAR

STARTCHAR uni2583
ENCODING 9603
SWIDTH 617 0
DWIDTH 9 0
BBX 9 15 0 -3
BITMAP
0000
0000
0000
0000
0000
0000
0000
0000
0000
FF80
FF80
FF80
FF80
FF80
FF80
ENDCHAR

STARTCHAR dnblock
ENCODING 9604
SWIDTH 617 0
DWIDTH 9 0
BBX 9 15 0 -3
BITMAP
0000
0000
0000
0000
0000
0000
0000
0000
FF80
FF80
FF80
FF80
FF80
FF80
FF80
ENDCHAR

STARTCHAR uni2585
ENCODING 9605
SWIDTH 617 0
DWIDTH 9 0
BBX 9 15 0 -3
BITMAP
0000
0000
0000
0000
0000
0000
FF80
FF80
FF80
FF80
FF80
FF80
FF80
FF80
FF80
ENDCHAR

STARTCHAR uni2586
ENCODING 9606
SWIDTH 617 0
DWIDTH 9 0
BBX 9 15 0 -3
BITMAP
0000
0000
0000
0000
FF80
FF80
FF80
FF80
FF80
FF80
FF80
FF80
FF80
FF80
FF80
ENDCHAR

STARTCHAR uni2587
ENCODING 9607
SWIDTH 617 0
DWIDTH 9 0
BBX 9 15 0 -3
BITMAP
0000
0000
FF80
FF80
FF80
FF80
FF80
FF80
FF80
FF80
FF80
FF80
FF80
FF80
FF80
ENDCHAR

STARTCHAR block
ENCODING 9608
SWIDTH 617 0
DWIDTH 9 0
BBX 9 15 0 -3
BITMAP
FF80
FF80
FF80
FF80
FF80
FF80
FF80
FF80
FF80
FF80
FF80
FF80
FF80
FF80
FF80
ENDCHAR

STARTCHAR uni2589
ENCODING 9609
SWIDTH 617 0
DWIDTH 9 0
BBX 9 15 0 -3
BITMAP
FF00
FF00
FF00
FF00
FF00
FF00
FF00
FF00
FF00
FF00
FF00
FF00
FF00
FF00
FF00
ENDCHAR

STARTCHAR uni258A
ENCODING 9610
SWIDTH 617 0
DWIDTH 9 0
BBX 9 15 0 -3
BITMAP
FE00
FE00
FE00
FE00
FE00
FE00
FE00
FE00
FE00
FE00
FE00
FE00
FE00
FE00
FE00
ENDCHAR

STARTCHAR uni258B
ENCODING 9611
SWIDTH 617 0
DWIDTH 9 0
BBX 9 15 0 -3
BITMAP
FC00
FC00
FC00
FC00
FC00
FC00
FC00
FC00
FC00
FC00
FC00
FC00
FC00
FC00
FC00
ENDCHAR

STARTCHAR lfblock
ENCODING 9612
SWIDTH 617 0
DWIDTH 9 0
BBX 9 15 0 -3
BITMAP
F800
F800
F800
F800
F800
F800
F800
F800
F800
F800
F800
F800
F800
F800
F800
ENDCHAR

STARTCHAR uni258D
ENCODING 9613
SWIDTH 617 0
DWIDTH 9 0
BBX 9 15 0 -3
BITMAP
E000
E000
E000
E000
E000
E000
E000
E000
E000
E000
E000
E000
E000
E000
E000
ENDCHAR

STARTCHAR uni258E
ENCODING 9614
SWIDTH 617 0
DWIDTH 9 0
BBX 9 15 0 -3
BITMAP
C000
C000
C000
C000
C000
C000
C000
C000
C000
C000
C000
C000
C000
C000
C000
ENDCHAR

STARTCHAR uni258F
ENCODING 9615
SWIDTH 617 0
DWIDTH 9 0
BBX 9 15 0 -3
BITMAP
8000
8000
8000
8000
8000
8000
8000
8000
8000
8000
8000
8000
8000
8000
8000
ENDCHAR

STARTCHAR rtblock
ENCODING 9616
SWIDTH 617 0
DWIDTH 9 0
BBX 9 15 0 -3
BITMAP
0780
0780
0780
0780
0780
0780
0780
0780
0780
0780
0780
0780
0780
0780
0780
ENDCHAR

STARTCHAR shadelight
ENCODING 9617
SWIDTH 617 0
DWIDTH 9 0
BBX 9 15 0 -3
BITMAP
2480
4900
0000
2480
4900
0000
2480
4900
0000
2480
4900
0000
2480
4900
0000
ENDCHAR

STARTCHAR shademedium
ENCODING 9618
SWIDTH 617 0
DWIDTH 9 0
BBX 9 15 0 -3
BITMAP
B680
4900
B680
B680
4900
B680
B680
4900
B680
B680
4900
B680
B680
4900
B680
ENDCHAR

STARTCHAR shadedark
ENCODING 9619
SWIDTH 617 0
DWIDTH 9 0
BBX 9 15 0 -3
BITMAP
DB00
B680
FF80
DB00
B680
FF80
DB00
B680
FF80
DB00
B680
FF80
DB00
B680
FF80
ENDCHAR

STARTCHAR uni2594
ENCODING 9620
SWIDTH 617 0
DWIDTH 9 0
BBX 9 15 0 -3
BITMAP
FF80
FF80
0000
0000
0000
0000
0000
0000
0000
0000
0000
0000
0000
0000
0000
ENDCHAR

STARTCHAR uni2595
ENCODING 9621
SWIDTH 617 0
DWIDTH 9 0
BBX 9 15 0 -3
BITMAP
0080
0080
0080
0080
0080
0080
0080
0080
0080
0080
0080
0080
0080
0080
0080
ENDCHAR

STARTCHAR uni2596
ENCODING 9622
SWIDTH 617 0
DWIDTH 9 0
BBX 9 15 0 -3
BITMAP
0000
0000
0000
0000
0000
0000
0000
0000
F800
F800
F800
F800
F800
F800
F800
ENDCHAR

STARTCHAR uni2597
ENCODING 9623
SWIDTH 617 0
DWIDTH 9 0
BBX 9 15 0 -3
BITMAP
0000
0000
0000
0000
0000
0000
0000
0000
0780
0780
0780
0780
0780
0780
0780
ENDCHAR

STARTCHAR uni2598
ENCODING 9624
SWIDTH 617 0
DWIDTH 9 0
BBX 9 15 0 -3
BITMAP
F800
F800
F800
F800
F800
F800
F800
F800
0000
0000
0000
0000
0000
0000
0000
ENDCHAR

STARTCHAR uni2599
ENCODING 9625
SWIDTH 617 0
DWIDTH 9 0
BBX 9 15 0 -3
BITMAP
F800
F800
F800
F800
F800
F800
F800
F800
FF80
FF80
FF80
FF80
FF80
FF80
FF80
ENDCHAR

STARTCHAR uni259A
ENCODING 9626
SWIDTH 617 0
DWIDTH 9 0
BBX 9 15 0 -3
BITMAP
F800
F800
F800
F800
F800
F800
F800
F800
0780
0780
0780
0780
0780
0780
0780
ENDCHAR

STARTCHAR uni259B
ENCODING 9627
SWIDTH 617 0
DWIDTH 9 0
BBX 9 15 0 -3
BITMAP
FF80
FF80
FF80
FF80
FF80
FF80
FF80
FF80
F800
F800
F800
F800
F800
F800
F800
ENDCHAR

STARTCHAR uni259C
ENCODING 9628
SWIDTH 617 0
DWIDTH 9 0
BBX 9 15 0 -3
BITMAP
FF80
FF80
FF80
FF80
FF80
FF80
FF80
FF80
0780
0780
0780
0780
0780
0780
0780
ENDCHAR

STARTCHAR uni259D
ENCODING 9629
SWIDTH 617 0
DWIDTH 9 0
BBX 9 15 0 -3
BITMAP
0780
0780
0780
0780
0780
0780
0780
0780
0000
0000
0000
0000
0000
0000
0000
ENDCHAR

STARTCHAR uni259E
ENCODING 9630
SWIDTH 617 0
DWIDTH 9 0
BBX 9 15 0 -3
BITMAP
0780
0780
0780
0780
0780
0780
0780
0780
F800
F800
F800
F800
F800
F800
F800
ENDCHAR

STARTCHAR uni259F
ENCODING 9631
SWIDTH 617 0
DWIDTH 9 0
BBX 9 15 0 -3
BITMAP
0780
0780
0780
0780
0780
0780
0780
0780
FF80
FF80
FF80
FF80
FF80
FF80
FF80
ENDCHAR

STARTCHAR blacksquare
ENCODING 9632
SWIDTH 617 0
DWIDTH 9 0
BBX 9 15 0 -3
BITMAP
0000
0000
0000
0000
1F00
1F00
1F00
1F00
1F00
1F00
1F00
0000
0000
0000
0000
ENDCHAR

STARTCHAR diamond
ENCODING 9830
SWIDTH 617 0
DWIDTH 9 0
BBX 9 15 0 -3
BITMAP
0000
0000
0000
0000
0c00
1e00
3f00
7f80
3f00
1e00
0c00
0000
0000
0000
0000
ENDCHAR

STARTCHAR uni2713
ENCODING 10003
SWIDTH 617 0
DWIDTH 9 0
BBX 9 15 0 -3
BITMAP
0000
0000
0180
0180
0300
0300
0600
0600
6C00
3C00
1800
0000
0000
0000
0000
ENDCHAR

STARTCHAR uni2715
ENCODING 10005
SWIDTH 617 0
DWIDTH 9 0
BBX 9 15 0 -3
BITMAP
0000
0000
0000
6180
3300
1E00
0C00
1E00
3300
6180
0000
0000
0000
0000
0000
ENDCHAR

STARTCHAR uniFFFD
ENCODING 65533
SWIDTH 617 0
DWIDTH 9 0
BBX 9 15 0 -3
BITMAP
0000
0000
3F00
6180
4C80
7C80
7980
7380
7380
7F80
7380
3F00
0000
0000
0000
ENDCHAR
ENDFONT
